<svg xmlns="http://www.w3.org/2000/svg" width="248.921" height="46.861" viewBox="0 0 248.921 46.861">
  <g id="bf-logo-mobile" transform="translate(-18.684 -72.576)">
    <path id="Path_63" data-name="Path 63" d="M232.245,81.366a3.087,3.087,0,0,0,2.525-.971,3.509,3.509,0,0,0,.8-2.306v-1.7a2.449,2.449,0,0,0-1.02-2.233,4.063,4.063,0,0,0-2.306-.68h-1.894v7.889Zm2.986-16.41a2.289,2.289,0,0,0-.8-2.015,3.883,3.883,0,0,0-2.306-.583h-1.772v7.016h1.966a2.465,2.465,0,0,0,2.161-1.092,4.752,4.752,0,0,0,.753-2.719ZM233.9,86.343q-1.893,0-4.9-.1t-4.321-.122h-2.33V57.674h4.2q1.529,0,3.5-.1,1.966-.121,2.84-.121a21.065,21.065,0,0,1,4.782.461,7.469,7.469,0,0,1,3.083,1.384,5.119,5.119,0,0,1,1.578,2.136,7.767,7.767,0,0,1,.486,2.889,7.975,7.975,0,0,1-1.19,4.418,5.148,5.148,0,0,1-3.447,2.306q5.729.51,5.729,6.724a9.845,9.845,0,0,1-.559,3.4,7.277,7.277,0,0,1-4.831,4.515A14.619,14.619,0,0,1,233.9,86.343ZM258.3,82.9a4.124,4.124,0,0,1-.607.9,11.182,11.182,0,0,1-1.165,1.238,6.522,6.522,0,0,1-1.8,1.117,5.174,5.174,0,0,1-2.161.486q-3.423,0-4.9-2.039-1.456-2.039-1.456-6.8V69.156l-.85-.874V65.49h8.812V79.327a2.665,2.665,0,0,0,.364,1.627,1.674,1.674,0,0,0,1.408.51h.267l.243-.049q.121-.049.194-.073a1.705,1.705,0,0,0,.219-.073c.081-.048.146-.089.194-.122s.113-.073.194-.121c.081-.065.137-.113.17-.146q.073-.048.194-.145.146-.122.219-.17V69.156l-1.311-.874V65.49h9.249V86.124h-6.724Zm20.769,11.579a14.947,14.947,0,0,1-4.709-.728,6.847,6.847,0,0,1-3.229-1.966l1.262-2.622a9.419,9.419,0,0,0,4.467.8,5.689,5.689,0,0,0,1.675-.219,3.051,3.051,0,0,0,1.262-.777,3.384,3.384,0,0,0,.85-1.529,9.407,9.407,0,0,0,.316-2.452V82.9l-.243.389a7.012,7.012,0,0,1-.753.947,14.444,14.444,0,0,1-1.117,1.092,5.985,5.985,0,0,1-1.554.923,4.6,4.6,0,0,1-1.845.388q-3.617,0-5.1-2.015-1.481-2.039-1.481-6.846V69.156L268,68.282V65.49h8.836V79.3a3.146,3.146,0,0,0,.34,1.651,1.665,1.665,0,0,0,1.432.51,2.14,2.14,0,0,0,.631-.1,3.1,3.1,0,0,0,.607-.316,5.235,5.235,0,0,0,.656-.486V69.156l-1.335-.874V65.49h9.249V83.284q0,5.365-2.282,8.278T279.073,94.475Zm23.492-20.9a20.785,20.785,0,0,0-.316-4.37q-.316-1.287-1.165-1.287a2.354,2.354,0,0,0-1.19.267,1.464,1.464,0,0,0-.68.8,4.357,4.357,0,0,0-.291,1.117q-.049.558-.049,1.432v2.039Zm-1.942,13.06a12.439,12.439,0,0,1-4.734-.825,7.634,7.634,0,0,1-3.156-2.306,9.909,9.909,0,0,1-1.675-3.326,15.091,15.091,0,0,1-.534-4.151q0-5.438,2.767-8.229T301.035,65q4.782,0,6.845,2.258,2.064,2.233,2.064,7.21v2.694H298.85v.461a7.979,7.979,0,0,0,.291,2.355,2.751,2.751,0,0,0,.9,1.359,3.249,3.249,0,0,0,1.19.583,6.433,6.433,0,0,0,1.481.146,8.31,8.31,0,0,0,1.821-.219,9.633,9.633,0,0,0,1.991-.68,6.268,6.268,0,0,0,1.7-1.092l1.432,2.452a7.208,7.208,0,0,1-2.646,2.452,11.822,11.822,0,0,1-3.326,1.311A14.749,14.749,0,0,1,300.622,86.634Zm19.792-.51h-7.841V70.418l-1.457-.9V66.777l5.219-1.287H318.3l.7,5.778q.995-5.948,6.384-5.948a3.984,3.984,0,0,1,1.262.218l-.825,8.642a3.612,3.612,0,0,0-2.233-.461q-2.476,0-3.18,1.311Zm14.545.51a14.945,14.945,0,0,1-4.612-.753,7.561,7.561,0,0,1-2.986-1.505l.631-3.908a6.819,6.819,0,0,0,2.743,1.384,13.7,13.7,0,0,0,3.957.583,3.808,3.808,0,0,0,1.991-.364,1.151,1.151,0,0,0,.558-1.02q0-.631-.971-1.117a19.351,19.351,0,0,0-3.156-1.165q-5.656-1.7-5.656-7.04a5.741,5.741,0,0,1,1.262-3.738,7.119,7.119,0,0,1,3.229-2.282,12.968,12.968,0,0,1,4.394-.7q4.151,0,6.117,1.529l.437.413-1.068,3.471a6.024,6.024,0,0,0-4.418-1.578q-2.306,0-2.306,1.359a1.2,1.2,0,0,0,.17.656,1.46,1.46,0,0,0,.558.437q.413.17.8.291.388.1,1.092.291.7.17,1.214.316a8.2,8.2,0,0,1,4.127,2.67,6.983,6.983,0,0,1,1.286,4.3Q344.355,86.634,334.96,86.634Z" transform="translate(-159.878 24.961)" fill="#005596"/>
    <path id="Path_64" data-name="Path 64" d="M230.871,200.955h-8.035V172.5h16.022v6.19l-7.987-.486v6.6h6.554v6.02l-6.554-.486Zm10.225,0V185.248l-1.457-.9v-2.6l5.219-1.432h4.054v20.634Zm3.52-22.867-3.981-4.005v-.85l3.981-3.981h.923l4.151,3.981v.85l-4.151,4.005ZM260.1,200.955h-7.841V185.248l-1.457-.9v-2.743l5.219-1.287h1.966l.7,5.777q1-5.947,6.385-5.947a3.989,3.989,0,0,1,1.262.218l-.825,8.642a3.613,3.613,0,0,0-2.233-.461q-2.476,0-3.18,1.311Zm14.545.51a14.945,14.945,0,0,1-4.612-.753,7.557,7.557,0,0,1-2.986-1.505l.631-3.908a6.821,6.821,0,0,0,2.743,1.384,13.7,13.7,0,0,0,3.957.583,3.808,3.808,0,0,0,1.991-.364,1.152,1.152,0,0,0,.558-1.02q0-.631-.971-1.117A19.365,19.365,0,0,0,272.8,193.6q-5.656-1.7-5.656-7.04a5.741,5.741,0,0,1,1.262-3.738,7.118,7.118,0,0,1,3.229-2.282,12.966,12.966,0,0,1,4.394-.7q4.151,0,6.117,1.529l.437.413-1.068,3.471a6.025,6.025,0,0,0-4.418-1.578q-2.306,0-2.306,1.359a1.2,1.2,0,0,0,.17.656,1.461,1.461,0,0,0,.559.437q.413.17.8.292.388.1,1.092.291.7.17,1.214.316a8.2,8.2,0,0,1,4.127,2.67,6.982,6.982,0,0,1,1.287,4.3Q284.043,201.464,274.648,201.464Zm17.147,0q-3.277,0-4.588-1.966-1.286-1.966-1.287-6.652v-8.254h-1.675v-3.374l2.865-.9,2.476-5.656h4.272v5.656h3.981v4.272h-4.054v9.031a4.116,4.116,0,0,0,.559,2.573,2.184,2.184,0,0,0,1.724.631,3.267,3.267,0,0,0,.922-.121,1.916,1.916,0,0,0,.68-.34v3.3a5.342,5.342,0,0,1-.947.728,8.564,8.564,0,0,1-1.942.7A11.345,11.345,0,0,1,291.795,201.464Z" transform="translate(-30.235 -89.675)" fill="#005596"/>
    <path id="Path_65" data-name="Path 65" d="M8.869,61.687V57.755a5.9,5.9,0,0,1,9.831-4.4,5.9,5.9,0,0,1,9.831,4.4v3.933h2.949a2.949,2.949,0,0,1,2.949,2.949V83.316a7.858,7.858,0,0,1-3.587,6.6l-1.073-.189a8.2,8.2,0,0,1-4.276-2.305,5.957,5.957,0,0,1-1.878-4.107V61.687h1.966V57.755a2.949,2.949,0,0,0-5.222-1.88,5.889,5.889,0,0,1,.306,1.88V83.316a8.892,8.892,0,0,0,2.728,6.179,11.406,11.406,0,0,0,2.121,1.686H10.836a7.865,7.865,0,0,1-7.865-7.865V64.637A2.949,2.949,0,0,1,5.92,61.687Zm2.949-3.933v3.933h5.9V57.755a2.949,2.949,0,0,0-5.9,0Z" transform="translate(16.109 20.72)" fill="#005596"/>
    <path id="Path_66" data-name="Path 66" d="M.684,112.175a3.61,3.61,0,0,1,3.61-3.61H28.93a3.61,3.61,0,0,1,3.61,3.61v18.7a7.219,7.219,0,0,1-7.22,7.219H7.9a7.219,7.219,0,0,1-7.219-7.219Z" transform="translate(18 -26.196)" fill="#005596"/>
    <path id="Path_67" data-name="Path 67" d="M59.3,163.5V146.6l-3.92.433v-4.613a18.42,18.42,0,0,0,2.036-.39,9.063,9.063,0,0,0,1.733-.672,4.683,4.683,0,0,0,1.559-1.256,6.553,6.553,0,0,0,1.061-1.971h4.787V163.5Z" transform="translate(-27.253 -50.658)" fill="#fff"/>
  </g>
</svg>
