<svg xmlns="http://www.w3.org/2000/svg" width="695.788" height="613.253" viewBox="0 0 695.788 613.253">
  <g id="vecteezy_closed-grunge-rubber-stamp-vector-illustration_19495966" transform="translate(183.199) rotate(30)">
    <path id="Path_71" data-name="Path 71" d="M672.151-1106.1c-2.817.878-5.853,1.756-6.731,2.012q-1.591.384-1.756,1.1c-.146.512-.512.732-1.244.732s-1.061.183-1.061.585c0,1.024-1.5,2.78-2.231,2.6-.512-.146-.622.037-.585.768.073,1.207-1.024,1.536-1.756.549-.366-.476-.622-.549-.914-.256s-.256.512.183.878c.8.658.7,1.317-.4,2.085l-.951.732,1.1.439c1.024.439,1.1.549.732,1.353-.512,1.1-1.024,1.171-.732.073.183-.732.11-.768-2.049-.549-2.6.293-2.963-.146-.988-1.1,1.536-.732,1.573-1.061.366-2.3-.841-.878-.914-1.1-.512-1.975.4-.841.366-1.061-.073-1.354-.878-.549-1.427-.366-1.427.549a4.993,4.993,0,0,1-.951,2.232l-.915,1.353.915-.219c1.1-.256,1.1-.256.549,1.134l-.4,1.024-.658-.841a1.79,1.79,0,0,0-1.9-.732c-1.024.11-1.354.4-2.158,1.9-.988,1.792-1.719,2.524-2.231,2.195a.578.578,0,0,1-.037-.7c.219-.658-.11-.7-1.683-.146-1.39.476-1.829.219-1.061-.658.549-.622.512-.7-.293-1.317-.878-.658-.878-.658-.878.219,0,.988-.988,1.61-1.61.988a2.978,2.978,0,0,1-.293-1.646c.11-1.573-.439-1.646-1.207-.183-.512,1.024-.512,1.1.4,2.012,1.244,1.244,1.1,2.6-.329,2.487l-.988-.073.183,2.341c.183,2.231.146,2.414-.951,3.658a4.246,4.246,0,0,1-1.646,1.28,4.354,4.354,0,0,0-1.646.8c-.951.695-1.134.732-1.427.293a3.084,3.084,0,0,1-.366-1.354c0-.585-.183-.732-.768-.585-.658.183-.7.073-.476-.841.4-1.683.841-2.341,1.866-2.744.512-.183.841-.439.732-.549a3.745,3.745,0,0,0-1.866.549c-1.207.512-1.683.951-1.683,1.463a1.523,1.523,0,0,1-.7,1.134c-.622.293-.8.22-1.207-.622a1.783,1.783,0,0,0-1.756-1.134,3.823,3.823,0,0,1-1.719-.512c-1.1-.878-.073-2.853,1.463-2.853.512,0,1.024-.4,1.463-1.134a4.024,4.024,0,0,0,.549-1.281c-.073-.037-3.621.951-7.938,2.231-5.231,1.573-8.011,2.561-8.487,3.073-.8.878-1.28.988-1.5.329-.146-.4-9.511,2.268-49.567,14.084-4.39,1.28-6.329,2.012-6.329,2.378,0,.4-.11.439-.476.146-.329-.293-11.706,2.927-42.69,12.035-23.229,6.841-43.641,12.84-45.361,13.315s-18.839,5.487-38.044,11.194c-19.205,5.67-36.618,10.755-38.7,11.34-3.329.951-18.73,5.451-87.136,25.57-10.17,3-27.033,7.938-37.5,11.011-10.462,3.036-19.169,5.67-19.315,5.816-.293.256,2.561,4.39,3.036,4.39.146,0,.476.512.732,1.1a4.878,4.878,0,0,0,1.171,1.646c.732.476.732.476-.073.915-.915.476-.8.549-1.61-.988a4.392,4.392,0,0,0-1.646-1.719,3.663,3.663,0,0,1-1.463-1.61,8.6,8.6,0,0,0-1.536-2.122l-1.061-1.024-2.67.768c-30.911,9-54.4,16.022-55.055,16.425-.439.293-.951.476-1.1.366-.256-.146-10.974,2.89-28.314,8.011l-4.609,1.353.549,1.9c1.61,5.633,3.109,10.1,3.4,10.279.219.11.366.732.366,1.354,0,1.207-.037,1.061,7.682,27.363,7.353,25.058,24.18,82.344,30.216,102.976,10.06,34.2,12.291,41.776,13.1,44.446.476,1.5,2.158,7.243,3.731,12.694,1.975,6.877,3.036,9.987,3.4,9.987.476,0,47.446-13.681,56.371-16.425,2.524-.768,17.669-5.231,33.655-9.914s43.9-12.84,62.005-18.181c18.108-5.3,35.813-10.5,39.325-11.523a44.6,44.6,0,0,0,7.06-2.451,2.493,2.493,0,0,1,1.573-.476c.476.073,8.816-2.195,18.547-5.048,9.694-2.853,25.936-7.645,36.106-10.609,10.17-3,35.118-10.316,55.42-16.279,43.714-12.84,60.359-17.705,99.5-29.228,43.861-12.877,74.625-21.912,85.051-24.948,5.121-1.5,9.914-2.963,10.609-3.256a13.47,13.47,0,0,1,2.561-.732,95.41,95.41,0,0,0,10.389-3.146,1.952,1.952,0,0,1,1.1-.329,53.912,53.912,0,0,0,5.524-1.39c3.658-1.1,4.719-1.536,4.646-1.975-.037-.329-2.195-7.792-4.792-16.608-2.6-8.853-9.218-31.277-14.669-49.9s-11.962-40.751-14.45-49.2-8.743-29.777-13.9-47.373-10.426-35.447-11.669-39.691c-1.573-5.341-2.414-7.682-2.78-7.719A42.475,42.475,0,0,0,672.151-1106.1Zm-24.839,12.877c-.476.878-.549.915-.585.256a1.842,1.842,0,0,1,.439-1.171C647.861-1094.836,647.935-1094.36,647.313-1093.226Zm2.926,1.1c-.366.366-.7-.183-.366-.658.219-.4.293-.4.439,0A.763.763,0,0,1,650.239-1092.129Zm-1.39.8c.366.219.4.476.037,1.244-.366.8-.512.878-1.28.549-.915-.439-1.024-.622-.659-1.536C647.2-1091.69,648.081-1091.836,648.849-1091.324Zm-7.828.256a2.283,2.283,0,0,1,.951.915c.329.549.183.768-.7,1.244a5.837,5.837,0,0,1-1.463.549c-.4,0-1.207-2.158-.915-2.6C639.119-1091.324,640.179-1091.4,641.021-1091.068Zm11.487,1.939c-.585.219-1.134-.585-.878-1.317.256-.585.329-.585.768.256C652.727-1089.6,652.763-1089.239,652.507-1089.129Zm-7.975.439c0,.183-.256.329-.549.329-.549,0-.732-.439-.329-.841C643.947-1089.495,644.533-1089.166,644.533-1088.69Zm23.046.512c0,.293-.146.549-.366.549-.183,0-.366-.256-.366-.549s.183-.549.366-.549C667.432-1088.727,667.579-1088.471,667.579-1088.178Zm-46.019,3.073.7,1.244-.914.915c-.768.768-.988.841-1.463.439-.476-.366-.585-.366-.585.11a1.6,1.6,0,0,1-.549.988,1.854,1.854,0,0,0-.549,1.207c0,.732,0,.732.841-.036,1.134-1.061,1.244-1.024,1.536.366a8.258,8.258,0,0,0,.8,2.085c.476.731.476,1.061.073,2.341-.366,1.171-.4,1.5-.037,1.646a.576.576,0,0,1,.439.512c0,.183-.329.22-.732.11-.951-.293-.951.256.037,1.134.7.622.7.7.11,1.134-.878.658-1.975.585-1.975-.073,0-.293-.329-.549-.732-.549s-.732-.146-.732-.293a5.1,5.1,0,0,0-1.061-1.5c-1.061-1.171-1.1-1.171-2.012-.585-.512.366-.951.842-.951,1.134,0,.549,1.207,1.39,2.561,1.792a5.871,5.871,0,0,1,1.9,1.207c.951.878.988.988.476,1.756a3.7,3.7,0,0,0-.549,1.573c0,.951-1.061,1.28-1.9.549-.622-.585-.732-.585-1.536.183a4.636,4.636,0,0,0-1.134,2.232,4.732,4.732,0,0,1-1.463,2.561l-1.207,1.171-1.317-.988c-1.536-1.17-1.609-1.573-.549-2.89.512-.658.585-.951.256-.951-.622.036-4.317,5.633-4.317,6.548a4.449,4.449,0,0,1-.219,1.28c-.4,1.1-1.244-.11-1.244-1.792,0-2.853-.4-3.073-1.427-.878-.988,2.085-2.231,2.853-2.231,1.427,0-.658-.11-.732-.512-.4-.329.293-.439.878-.329,1.792.183,1.244.073,1.5-1.1,2.378-1.134.878-5.268,5.743-4.865,5.743.11,0,6.585-1.866,14.376-4.17,16.023-4.682,18.547-5.3,23.741-5.6,10.426-.622,18.839,3.073,25.2,10.974a51.159,51.159,0,0,1,6.877,12.511c.549,1.39,3.183,10.133,5.89,19.388,2.744,9.255,7.9,26.814,11.487,39.069l6.511,22.241,1.134-1.573c1.829-2.561,3.109-6.072,2.853-7.828-.256-1.9.4-4.646,1.317-5.487,1.134-1.024,1.573-.183,1.463,2.78-.073,2.707-1.463,10.023-2.049,10.974a4.7,4.7,0,0,0-.219,2.122c.073,1.427-.037,1.719-1.28,2.89l-1.39,1.317.073,6.182c.183,11.194-1.719,17.01-7.572,23.448-1.829,1.939-1.939,2.195-1.683,3.439l.256,1.317-.951-.585c-1.244-.841-1.5-.8-3.256.439a47.816,47.816,0,0,1-8.67,4.317c-3.073,1.171-40.678,12.218-40.9,12-.146-.146-4.792-15.949-32.265-109.56-4.463-15.181-8.743-29.777-9.548-32.447-.768-2.634-1.427-4.9-1.427-4.975,0-.11.476-.366,1.061-.549.841-.293,1.024-.549.878-1.244-.256-1.39,3.8-7.609,4.975-7.609.219,0,.658.549.988,1.171.585,1.134,1.5,2.085,2.049,2.122.476,0-.22-1.683-1.024-2.378-1.317-1.171-1.427-2.158-.256-2.744.988-.475.988-.512.219-.658-1.024-.146-1.061-.841-.11-1.939.732-.878.732-.878,1.28-.183a2.76,2.76,0,0,1,.549,1.244c0,1.134.914.11,1.024-1.134.11-1.171.329-1.463,1.5-2.085a2.979,2.979,0,0,0,1.646-1.646c.146-.585.476-.914.988-.914.732,0,.841-.146,1.244-1.975l.219-1.1.878,1.1c.476.585.988.951,1.134.768a6.437,6.437,0,0,0,.4-2.195c.183-3.695.549-4.682,1.244-3.439.439.768,1.171.8,1.792.073.256-.293.585-.439.768-.329s.329-.073.329-.4a3.115,3.115,0,0,1,1.024-1.573,3.258,3.258,0,0,0,.988-1.719c0-1.207,1.719-.988,2.158.256.293.8.183,1.317-.476,2.524-.8,1.39-.8,1.5-.183,1.354.439-.073.988-.841,1.5-2.122l.8-2.012-.732-.585a1.687,1.687,0,0,1-.622-1.829c.11-1.134.22-1.244,1.463-1.354,1.171-.11,1.427-.292,1.61-1.1a5.64,5.64,0,0,1,.951-1.866,3.22,3.22,0,0,0,.658-1.28c0-.256.585-.732,1.28-1.061a4.615,4.615,0,0,0,1.829-1.719C619.84-1086.861,620.645-1086.751,621.56-1085.105Zm17.083-.11c-.476.585-1.427.695-1.427.146,0-.439,1.171-1.1,1.573-.841C638.936-1085.8,638.9-1085.508,638.643-1085.215Zm-29.3.366c1.061.293,1.024.732-.073,1.024-.476.11-1.134.329-1.463.439-.4.146-.585,0-.585-.476C607.22-1085.069,607.7-1085.288,609.342-1084.849Zm15.181,4.207c-.037,2.524-.11,2.707-.914,2.817-1.573.146-1.792-.293-1.354-2.707.366-2.049,1.134-3.219,1.975-2.963C624.45-1083.422,624.559-1082.252,624.523-1080.642Zm3.292-1.865c1.171.732,1.719,1.317,1.719,1.865,0,.8-.293.8-1.9.146-.549-.219-.585-.073-.4,1.061.256,1.536-.146,1.683-1.317.439-.585-.622-.768-1.134-.585-1.646a8.832,8.832,0,0,0,.256-1.865c.037-.585.146-1.1.293-1.1A11.475,11.475,0,0,1,627.815-1082.508Zm55.494,2.744a.563.563,0,0,1-.549.549.563.563,0,0,1-.549-.549.563.563,0,0,1,.549-.549A.563.563,0,0,1,683.309-1079.764Zm-39.032.951a1.159,1.159,0,0,1-1.1.183c-.622-.256-.622-.292.037-.8C644.057-1080.057,644.972-1079.508,644.276-1078.813Zm2.451.329a.367.367,0,0,1-.366.366.393.393,0,0,1-.366-.366.367.367,0,0,1,.366-.366A.346.346,0,0,1,646.727-1078.484Zm-38.191,1.5a.7.7,0,0,1-.915.915c-.4-.256-.146-1.317.329-1.317A.864.864,0,0,1,608.537-1076.984Zm69.87,0c.293.476-.549,1.1-1.317.951a.91.91,0,0,1-.658-.732c-.11-.439.11-.622.8-.622A1.586,1.586,0,0,1,678.407-1076.984Zm-29.119,1.463c0,.878-.841.768-1.024-.146-.073-.366.11-.622.439-.622C649.069-1076.289,649.288-1075.96,649.288-1075.521Zm22.973.219c.146.878-.951,1.463-1.244.659-.293-.768.11-1.719.7-1.573A1.405,1.405,0,0,1,672.261-1075.3Zm-64.675.293c0,.293-.146.549-.366.549-.183,0-.366-.256-.366-.549s.183-.549.366-.549C607.439-1075.557,607.586-1075.3,607.586-1075.009Zm-33.655.183a.367.367,0,0,1-.366.366.393.393,0,0,1-.366-.366.367.367,0,0,1,.366-.366A.346.346,0,0,1,573.931-1074.826Zm-2.927,1.28c0,.329-.219.439-.549.329-.293-.146-.549-.366-.549-.549s.256-.329.549-.329A.563.563,0,0,1,571-1073.546Zm22.534,0c-.8.622-1.683.732-1.683.22,0-.4.658-.7,1.646-.732C594.234-1074.058,594.234-1074.058,593.538-1073.546Zm76.747.7c-.146.695-.037.915.732,1.1.512.11.951.4.951.622,0,.439-1.28.11-2.451-.622-1.317-.8-1.024-1.866.549-1.939C670.359-1073.729,670.432-1073.436,670.286-1072.85Zm-37.459.439c0,.292-.146.439-.366.329a.785.785,0,0,1-.366-.585.361.361,0,0,1,.366-.329C632.68-1073,632.827-1072.741,632.827-1072.411Zm8.231.512a2.446,2.446,0,0,1-.183,1.5c-.4.7-.512.732-.951.256-.439-.439-.476-.732-.11-1.5C640.326-1072.814,640.728-1072.887,641.057-1071.9Zm39.471,6.036c-.329.512-.8.878-1.024.8-.658-.22-.7-1.683,0-2.707l.622-.951.512.951A1.447,1.447,0,0,1,680.528-1065.864Zm-116.108-1.683a1.646,1.646,0,0,1-.585,1.134c-.439.4-.659.366-1.171-.11-.549-.585-.549-.658.11-1.171C563.761-1068.424,564.42-1068.388,564.42-1067.546Zm11.669.256c-.549.658-1.427.658-1.427,0,0-.585.7-.915,1.39-.658C576.382-1067.839,576.419-1067.656,576.089-1067.29Zm9.145.951c-.439.732-.512.768-.622.183a1.745,1.745,0,0,1,.329-1.244C585.6-1068.168,585.783-1067.4,585.235-1066.339Zm3.695-.622c0,.293-.073.549-.146.549a5.7,5.7,0,0,0-.732.219c-.366.146-.585.037-.585-.329,0-.512.476-.878,1.207-.951C588.82-1067.51,588.929-1067.254,588.929-1066.961Zm27.8,4.134a2.636,2.636,0,0,1-.732,1.719,2.636,2.636,0,0,0-.732,1.719c0,.768-.183,1.024-.732,1.024-1.61,0-1.39-2.158.4-4.207C616.329-1064.108,616.731-1064.181,616.731-1062.827ZM586-1062.974a5.72,5.72,0,0,0,.219.732c.146.4.037.585-.366.585-.329,0-.585-.073-.585-.146a5.71,5.71,0,0,0-.219-.732c-.146-.4-.037-.585.366-.585C585.747-1063.12,586-1063.047,586-1062.974Zm1.39,3.841a1.163,1.163,0,0,1-.732,1.061c-.512.11-.658-.146-.658-1.134a2.923,2.923,0,0,1,.256-1.463C586.7-1061.145,587.5-1060.084,587.393-1059.133Zm21.656-.329c0,1.719-.878,2.378-1.683,1.317-.659-.951.11-2.78,1.171-2.78C608.9-1060.925,609.049-1060.449,609.049-1059.462Zm-68.992.183c.146.366-.037.549-.512.549-.732,0-.951-.4-.476-.841C539.435-1059.974,539.8-1059.864,540.057-1059.279Zm73.6,2.085c.183.256-.366.951-1.354,1.829-2.67,2.3-3.585,1.609-1.1-.841C612.707-1057.706,613.219-1057.925,613.658-1057.194Zm-29.3,4.829c-.549,1.317-1.427,2.012-1.9,1.536-.146-.11.11-.585.512-1.061a5.475,5.475,0,0,0,1.024-1.683c.146-.512.4-.695.585-.512C584.8-1053.865,584.686-1053.206,584.357-1052.365Zm98.586-1.39c0,.329-.183.512-.439.439-.659-.219-.768-1.024-.146-1.024A.578.578,0,0,1,682.943-1053.755Zm-103.159,2.561a.531.531,0,0,1-.549.512c-.549,0-.768-.768-.329-1.207C579.272-1052.219,579.784-1051.816,579.784-1051.194Zm-20.485.914c0,.183-.256.329-.549.329-.549,0-.732-.439-.329-.841C558.713-1051.085,559.3-1050.755,559.3-1050.28Zm-4.353.658c.732.585.8.8.4,1.207-.366.366-.658.366-1.463-.073-1.207-.695-1.536-1.829-.512-1.829A3.261,3.261,0,0,1,554.945-1049.621Zm26.851.4a.351.351,0,0,1-.622.073.674.674,0,0,1-.11-.8.351.351,0,0,1,.622-.073A.674.674,0,0,1,581.8-1049.219Zm84.978,1.683c1.134.329,1.024.841-.329,1.39-.951.4-1.28.366-2.561-.256-.768-.366-1.317-.841-1.207-1.024C662.9-1047.792,665.494-1047.865,666.774-1047.536Zm-91.745,2.012c0,.183-.256.329-.549.329-.549,0-.732-.439-.329-.841C574.443-1046.329,575.028-1046,575.028-1045.524Zm-101.33.146a.563.563,0,0,1-.549.549.563.563,0,0,1-.549-.549.563.563,0,0,1,.549-.549A.563.563,0,0,1,473.7-1045.378Zm90.282,4.463c-.183.915-1.024,1.024-1.024.146,0-.439.219-.768.585-.768C563.871-1041.537,564.054-1041.281,563.981-1040.915Zm6.109,3.951c.658,2.195,1.9,6.4,2.744,9.328.915,3.109,1.829,5.56,2.231,5.89.658.585.658.622-.037,1.244-.585.549-9.475,3.256-33.838,10.316-3.219.915-5.89,1.719-5.963,1.756a40.369,40.369,0,0,0,1.317,4.975c1.353,4.609,1.5,4.9,2.561,5.231,1.61.585,1.939,1.1.549.841-.659-.146-1.207-.073-1.207.11,0,.7,3.036,10.791,3.365,11.23a8.266,8.266,0,0,0,2.414,1.207,23.605,23.605,0,0,1,3.731,1.829,14.912,14.912,0,0,0,2.561,1.28,14.915,14.915,0,0,1,2.561,1.28,14.915,14.915,0,0,0,2.561,1.28,6.35,6.35,0,0,1,1.939,1.134,4.5,4.5,0,0,0,1.39.878,7.7,7.7,0,0,1,2.085,1.427,15.634,15.634,0,0,0,3.292,2.012c1.573.585,1.683.585,5.012-.366,2.451-.732,3.365-1.134,3.329-1.573-.037-.658,1.244-1.024,1.61-.4.183.293.8.293,2.414-.146a17.416,17.416,0,0,1,2.195-.476c.256.366,6.073,20.778,5.926,20.924-.11.11-2.378.841-5.085,1.646s-9.657,2.853-15.474,4.573c-5.853,1.719-10.682,3.183-10.755,3.256-.11.146,2.231,8.3,10.352,35.886,1.061,3.585,2.122,6.621,2.341,6.694s9.218-2.451,19.973-5.633c10.791-3.146,19.644-5.67,19.717-5.6.256.293,6.146,20.851,6.036,21-.256.219-62.919,18.547-63.066,18.437-.037-.073-3.512-11.742-7.682-25.936-21-71.626-32.228-109.853-34.057-115.926-1.1-3.695-1.939-6.768-1.866-6.877.073-.073.366.11.622.439a1.521,1.521,0,0,0,.951.549c.4,0,40.276-11.633,55.2-16.1,3.219-.988,6.072-1.719,6.365-1.719C568.7-1041.025,569.358-1039.415,570.09-1036.964Zm111.207-2.744c-.475.549-.8.622-1.061.366-.439-.439.293-1.1,1.207-1.1C681.845-1040.44,681.809-1040.257,681.3-1039.708Zm-209.061.183c.366.439.329.585-.183.768-.7.293-1.463-.329-1.134-.915C471.284-1040.22,471.687-1040.184,472.235-1039.525Zm-15,.183c0,.183-.256.366-.549.366s-.549-.183-.549-.366c0-.219.256-.366.549-.366S457.237-1039.562,457.237-1039.342Zm35.52.951c.4.512.366.549-.4.439a1.3,1.3,0,0,1-1.024-.585C491.148-1039.159,492.172-1039.086,492.757-1038.391Zm3.036-.256c.329.549-.841,1.317-1.317.841a.748.748,0,0,1-.146-.768A.955.955,0,0,1,495.794-1038.647Zm17.413.4a.367.367,0,0,1-.366.366.393.393,0,0,1-.366-.366.367.367,0,0,1,.366-.366A.346.346,0,0,1,513.206-1038.245Zm18.108,1.1c.219,0,.037.256-.329.549-.512.4-.841.439-1.207.146-.585-.512-.293-1.024.549-.878C530.656-1037.257,531.131-1037.184,531.314-1037.147ZM426.8-1032.721a.542.542,0,0,1-.476.366.542.542,0,0,1-.476-.366c-.073-.219.146-.4.476-.4S426.875-1032.94,426.8-1032.721Zm67.931.293c.256.439-.439.878-.915.585-.4-.256-.146-.915.366-.915A.806.806,0,0,1,494.733-1032.428Zm-63.907.659c.183.658-.841.585-1.427-.11-.4-.512-.366-.549.4-.439A1.382,1.382,0,0,1,430.826-1031.77Zm65.48,1.353c.11.439-.037.622-.366.512a1.132,1.132,0,0,1-.585-.8c-.11-.439.037-.622.366-.512A1.133,1.133,0,0,1,496.306-1030.416Zm-6.146,1.1c-.476.475-1.28-.256-.915-.878.183-.293.4-.293.768.036C490.38-1029.868,490.453-1029.612,490.16-1029.319Zm176.723.329c-.037.439-.549.329-.7-.146-.11-.219.037-.366.293-.293C666.7-1029.319,666.884-1029.136,666.884-1028.99ZM501.135-1028c.476.329.439.476-.329,1.1l-.841.732H501.1c.768,0,1.244.22,1.39.622a3.114,3.114,0,0,0,.988,1.28c.7.585.7.659.11.659a5.822,5.822,0,0,1-3.731-1.939,2.29,2.29,0,0,1-.329-1.866C499.781-1028.441,500.22-1028.587,501.135-1028Zm-44.19.549a.585.585,0,0,1-.4.476c-.219.073-.4-.146-.4-.476s.183-.549.4-.475A.585.585,0,0,1,456.945-1027.453Zm19.1-.219a.438.438,0,0,1,0,.512c-.293.293-1.244-.11-1.244-.512S475.784-1028.112,476.04-1027.673Zm-28.68.4c0,.183-.329.512-.732.732-.549.293-.732.293-.732-.11a1.032,1.032,0,0,1,.256-.732C446.519-1027.746,447.36-1027.673,447.36-1027.27Zm-5.121,1.829c-.658.4-.878.219-.585-.585.183-.512.329-.549.7-.183C442.678-1025.88,442.678-1025.7,442.239-1025.441Zm38.337,1.536c-.219.658-1.024.768-1.024.146a.578.578,0,0,1,.585-.585C480.466-1024.344,480.649-1024.161,480.576-1023.9Zm-14.815.915c.256.219-.768,1.171-1.28,1.207-.476,0-.329-1.024.183-1.207C465.322-1023.283,465.5-1023.283,465.761-1022.99Zm-63.322,3.585a.585.585,0,0,1-.4.476c-.219.073-.4-.146-.4-.476s.183-.549.4-.476A.585.585,0,0,1,402.439-1019.405Zm282.7,1.28c0,1.171-.951,1.573-1.317.549-.329-.768.11-1.646.768-1.646Q685.138-1019.223,685.138-1018.125Zm-244.581,3.4,1.061.841-.951.768a2.316,2.316,0,0,1-2.158.512c-1.354-.293-1.792-1.1-.7-1.39a.964.964,0,0,0,.768-.878C438.581-1015.784,439.276-1015.747,440.556-1014.723Zm20.7-.073c0,.439-1.061.878-1.353.585a.921.921,0,0,1,0-.768C460.127-1015.564,461.261-1015.382,461.261-1014.8Zm220.365.878c-.256.622-.732.732-1.024.219-.256-.366.11-.768.732-.768C681.626-1014.467,681.736-1014.248,681.626-1013.918Zm-223.657-.073a7.166,7.166,0,0,1-1.1,1.171c-1.207,1.171-1.536.622-.366-.549C457.127-1013.991,457.969-1014.357,457.969-1013.991Zm98.842.8a.585.585,0,0,1-.4.476c-.219.073-.4-.146-.4-.476s.183-.549.4-.476A.585.585,0,0,1,556.811-1013.187Zm-78.759,1.683c8.743,2.012,16.535,8.962,21.217,19.022a101.173,101.173,0,0,1,4.536,12.8c.22.841.11,1.024-.622,1.207-.512.11-.841.476-.8.841a.824.824,0,0,1-.585.768c-.439.073-.658-.11-.658-.476,0-.4-.22-.549-.658-.4-6.658,2.122-18.181,5.3-18.4,5.085a27.633,27.633,0,0,1-1.244-3.768c-1.829-6.511-4.573-11.121-7.536-12.657-3.8-1.939-10.791-.7-14.157,2.524-2.122,2.012-2.744,3.695-2.926,7.572-.146,3.439-.146,3.475.585,2.817.658-.585.732-.585.951-.073.366.951.256,1.171-.512,1.39-.915.219-.841.7.8,5.231,2.158,6,6.987,11.669,13.864,16.205,1.9,1.244,8.011,4.573,13.645,7.426,13.864,6.95,19.242,10.206,24.436,14.815a11.84,11.84,0,0,0,2.451,1.756c.439.11.768.4.768.622a14.688,14.688,0,0,0,2.158,3c11.157,13.535,15.547,34.057,10.06,47.153-4.317,10.206-14.6,17.413-28.9,20.229-4.682.951-11.852.841-15.693-.183a30.1,30.1,0,0,1-16.059-10.682,51.794,51.794,0,0,1-6.987-12.767c-1.719-4.829-4.134-13.535-3.8-13.718.841-.549,21.363-6.365,21.583-6.109.146.146,1.1,3.109,2.122,6.585,2.195,7.389,3.475,10.133,5.78,12.364,2.89,2.817,7.353,3.439,12.291,1.683,3.256-1.171,5.377-2.89,6.658-5.377,1.024-1.975,1.1-2.451,1.061-5.633a19.488,19.488,0,0,0-1.061-6.621,26.976,26.976,0,0,0-7.572-12.364c-3.987-4.024-9.621-7.572-21.619-13.572-15.071-7.609-20.229-10.938-26.119-16.9a45.524,45.524,0,0,1-10.389-15.364c-3.841-8.853-5.56-20.046-4.317-27.765a30.511,30.511,0,0,1,6.109-13.9,4.371,4.371,0,0,0,1.171-2.451,5.317,5.317,0,0,1,.732-2.231c.622-.988.841-1.134,1.427-.8,1.134.585,1.5.476,4.792-1.463a49.886,49.886,0,0,1,13.242-5.3A36.681,36.681,0,0,1,478.052-1011.5Zm91.014-.146c.183.476-.915.951-1.39.622-.219-.11-.183-.4.073-.732C568.224-1012.345,568.883-1012.272,569.066-1011.65Zm9.987.439c0,.439-2.158,1.28-2.487.988-.146-.146.073-.512.439-.8C577.809-1011.614,579.052-1011.723,579.052-1011.211Zm-78.905.659c.146.11-.11.622-.549,1.1-.732.768-.841.8-1.463.22-.512-.439-.549-.7-.256-1.1A2.009,2.009,0,0,1,500.147-1010.553Zm65.736.8c0,1.134-7.975,9.182-9.109,9.182-.622,0-.475-.512.329-1.207a1.978,1.978,0,0,0,.732-1.1c0-.622,3.256-3.4,4.536-3.914.585-.219.951-.622.951-1.061a2.413,2.413,0,0,1,.951-1.463C565.3-1010.114,565.883-1010.3,565.883-1009.748Zm7.828,1.354c.4,1.024.219,1.427-.329.732a2.815,2.815,0,0,1-.549-1.024C572.834-1009.2,573.492-1009.016,573.711-1008.395Zm111.243-.219c.4.622-.183,1.171-.768.7-.256-.219-.4-.549-.293-.732A.593.593,0,0,1,684.955-1008.614Zm2.963.037c.11.219-.183.841-.732,1.353-.8.8-.951.878-.951.329,0-.841.658-2.085,1.1-2.085A.864.864,0,0,1,687.918-1008.577Zm19.9,4.646a2.581,2.581,0,0,1-.512,1.024c-.512.659-.549.659-.8,0a.78.78,0,0,1,.256-.988C707.416-1004.3,707.818-1004.3,707.818-1003.932Zm-272.164.8c0,.183-.256.366-.549.366s-.549-.183-.549-.366c0-.219.256-.366.549-.366S435.654-1003.346,435.654-1003.127Zm142.447,1.683c.256.7-.439,1.719-.914,1.39a1.493,1.493,0,0,1-.329-1.1C576.857-1002.139,577.735-1002.359,578.1-1001.444Zm-176.54.585c-.256.7-1.39.8-1.39.146,0-.366.329-.585.768-.585S401.634-1001.115,401.561-1000.859Zm152.251.256c0,.439-.732.915-.988.659s.22-.988.658-.988A.328.328,0,0,1,553.811-1000.6Zm-161.4,2.378c.11.476-.037.622-.512.512a1.015,1.015,0,0,1-.8-.8c-.11-.476.037-.622.512-.512A1.015,1.015,0,0,1,392.415-998.225Zm1.536-.329c0,.293-.146.549-.366.549-.183,0-.366-.256-.366-.549s.183-.549.366-.549C393.806-999.1,393.952-998.847,393.952-998.554Zm185.832,1.134a.532.532,0,0,1-.549.512c-.549,0-.768-.768-.329-1.207C579.272-998.444,579.784-998.042,579.784-997.42Zm-262.067,1.207c-.256.4-1.683.585-1.683.219a4.5,4.5,0,0,1,.439-.914c.4-.622.549-.658.951-.22A.9.9,0,0,1,317.717-996.213Zm102.756.366c.256.439-.439.878-.914.585-.4-.256-.146-.914.366-.914A.806.806,0,0,1,420.473-995.847Zm167.651.366c.988.878,1.024,1.207.073,2.049a2.112,2.112,0,0,0-.732,1.171c0,.951-.7.11-.951-1.134-.219-1.28.073-2.78.512-2.78A5.156,5.156,0,0,1,588.124-995.481Zm-173.76,3.4c-.219.658-1.024.768-1.024.146a.578.578,0,0,1,.585-.585C414.254-992.518,414.437-992.335,414.364-992.079Zm293.088.512c0,.329-.256.512-.622.439-.914-.183-1.024-1.024-.146-1.024C707.123-992.153,707.452-991.933,707.452-991.567ZM416.266-989.3c0,.878-.037.915-.585.366a1.167,1.167,0,0,1-.366-1.207C415.644-990.982,416.266-990.47,416.266-989.3Zm-113.84-.585a1.414,1.414,0,0,1-1.061.585c-.841.073-.841.073-.183-.476C302.06-990.433,302.609-990.506,302.426-989.884Zm33.252,1.9c-.219.7-.951.622-1.353-.183-.366-.622-.329-.841.037-1.1C334.91-989.592,335.9-988.641,335.678-987.982Zm57.725-.476q16.9,2.03,25.534,19.169c1.975,3.987,3.073,7.353,10.718,33.435,3.914,13.389,9.109,31.021,11.523,39.178,5.743,19.607,5.963,20.632,5.963,28.167.037,6.914-.439,9.218-2.707,14.157a25.35,25.35,0,0,1-6.146,8.706c-6.146,6.036-16.315,10.426-26.851,11.6a37,37,0,0,1-12.913-.988c-1.463-.439-1.646-.4-1.829.183-.11.366-1.28,1.061-2.853,1.646-3.329,1.317-3.8,1.61-7.426,4.756a16.566,16.566,0,0,1-6.036,3.731A15.531,15.531,0,0,1,377.2-823.7c-.329-.329.476-1.024,1.939-1.646a5.125,5.125,0,0,0,1.792-1.061,1.335,1.335,0,0,1,1.024-.4,2.327,2.327,0,0,0,1.5-1.024c2.085-2.634,3.622-3.987,5.012-4.426a8.573,8.573,0,0,0,2.67-1.427,13.717,13.717,0,0,1,2.195-1.646c.549-.366.988-.768.988-.915a8.513,8.513,0,0,0-2.231-1.5,35.343,35.343,0,0,1-13.5-15.035c-2.341-4.719-3.219-7.316-8.231-24.509-2.378-8.158-4.536-15-4.792-15.218a2.3,2.3,0,0,1-.512-1.573c0-.988-1.427-6.072-7.17-25.753a.9.9,0,0,0-.732-.622c-.585,0-.7-.622-.146-.8.22-.073-.7-3.8-2.195-8.889-3.475-11.779-4.317-15.328-4.792-20.193a33.328,33.328,0,0,1,3.109-18.583,30.087,30.087,0,0,1,8.011-10.023,12.655,12.655,0,0,0,2.451-2.3c0-.146.22-.293.512-.293a22.929,22.929,0,0,0,3.731-1.646,53.477,53.477,0,0,1,17.925-5.268A22.3,22.3,0,0,1,393.4-988.458Zm183.454.146c-.476.585-1.463.732-1.463.256,0-.512.439-.8,1.207-.8C577.187-988.86,577.223-988.75,576.857-988.311Zm-4.1.622c.7.878.878,2.122.329,2.122-.476,0-1.354-1.427-1.354-2.195C571.736-988.275,572.321-988.2,572.76-987.69Zm133.228.7c0,.183-.256.329-.549.329-.549,0-.732-.439-.329-.841C705.4-987.8,705.989-987.47,705.989-986.995Zm-410.074,1.244c0,1.024-.549,1.244-.878.329-.366-.915-.256-1.244.329-1.244C295.695-986.665,295.914-986.336,295.914-985.751Zm165.712,0a1,1,0,0,1-.4.768c-.585.329-1.1-.658-.622-1.207C461.042-986.738,461.627-986.482,461.627-985.751Zm-104.768.219a.646.646,0,0,1-.988.8.7.7,0,0,1,.4-1.207A.865.865,0,0,1,356.859-985.531Zm57.213,3.219c0,.915-.329,1.1-1.573.878-1.28-.256-1.28-.7.037-1.134C413.962-983.117,414.071-983.08,414.071-982.312Zm-113.036,1.646c0,.256-.329.585-.732.7-.7.183-1.024-.439-.476-.951C300.231-981.361,301.036-981.178,301.036-980.666Zm-19.022.914a.749.749,0,0,1-1.1.585.445.445,0,0,1-.183-.585C281.026-980.19,282.014-980.19,282.014-979.752Zm26.631,3.329c-.073.183-.329.219-.622.037a.779.779,0,0,1-.256-.988c.256-.658.293-.658.622-.037A1.46,1.46,0,0,1,308.645-976.423Zm395.149-.732a.367.367,0,0,1-.366.366.393.393,0,0,1-.366-.366.367.367,0,0,1,.366-.366A.346.346,0,0,1,703.794-977.154Zm-238.728,2.049a.991.991,0,0,1,.073.768c-.293.293-.951-.293-.951-.841C464.188-975.874,464.773-975.837,465.066-975.106Zm37.386.366c-.7.476-1.683.7-1.683.329,0-.293,2.012-1.244,2.195-1.024C503.073-975.362,502.817-975.033,502.451-974.74Zm201.16-.219a.785.785,0,0,1-.585.366.361.361,0,0,1-.329-.366c0-.219.256-.366.585-.366C703.575-975.325,703.721-975.179,703.611-974.959ZM471.87-973.277c0,.293-.439.7-.951.878-1.573.622-1.792.4-.7-.732C471.248-974.228,471.87-974.264,471.87-973.277Zm-44.263,1.427c0,.329-.366.549-.915.549-.951,0-1.061-.256-.695-1.244C426.253-973.24,427.606-972.655,427.606-971.85Zm161.25-.622c.073.256-.11.439-.439.439a.578.578,0,0,1-.585-.585C587.832-973.24,588.637-973.13,588.856-972.472Zm-241.4,1.39c.4.366-.585.878-1.756.878-1.28,0-2.232-.512-2.232-1.171C343.47-971.667,347.091-971.374,347.457-971.082Zm-61.968.219c1.1.512,1.134.7.183,1.317-.951.585-1.463.293-1.463-.878C284.208-971.448,284.245-971.448,285.489-970.862Zm58.9,2.488c0,.8-1.061.658-1.207-.11-.11-.512.037-.658.549-.549A.772.772,0,0,1,344.384-968.375Zm-25.131,3.548c.219.7-.915.585-1.171-.11-.146-.4-.037-.512.4-.439A1.244,1.244,0,0,1,319.253-964.826Zm370.53.7c-.329.329-1.024-.219-.768-.658.146-.219.366-.219.622.037C689.857-964.534,689.93-964.278,689.783-964.131Zm-214.256,3.256a1.247,1.247,0,0,1-1.683,1.354c-.768-.146-.878-.366-.878-1.719,0-1.244.146-1.61.841-1.9.7-.329.878-.256,1.244.585A5.627,5.627,0,0,1,475.528-960.876Zm-273.444-1.244a.775.775,0,0,1-.622.622c-.658.11-.915-.659-.4-1.171A.634.634,0,0,1,202.084-962.119Zm98.22-.037a.367.367,0,0,1-.366.366.393.393,0,0,1-.366-.366.367.367,0,0,1,.366-.366A.346.346,0,0,1,300.3-962.156Zm17.559.4c0,.878-.841.768-1.024-.146-.073-.366.11-.622.439-.622C317.644-962.522,317.863-962.193,317.863-961.754Zm196.441.366a.338.338,0,0,1-.366.329c-.183,0-.366-.256-.366-.585,0-.293.183-.439.366-.329A.7.7,0,0,1,514.3-961.388Zm80.113-.22c0,.293-.146.549-.366.549-.183,0-.366-.256-.366-.549s.183-.549.366-.549C594.27-962.156,594.416-961.9,594.416-961.607Zm-293.71,17.778c2.744,9.328,9.731,33.033,15.474,52.64s10.609,36,10.791,36.4a16.128,16.128,0,0,1,.768,2.561c.22.988,1.427,5.268,2.67,9.511,1.866,6.255,2.414,7.646,2.89,7.572.366-.037,8.743-2.487,18.62-5.377,9.913-2.926,18.217-5.3,18.473-5.3s.732.951,1.061,2.085c.329,1.171,1.683,5.707,2.963,10.06,1.28,4.39,2.341,8.194,2.341,8.523a.655.655,0,0,1-.7.549,1.154,1.154,0,0,0-.951.366,1.16,1.16,0,0,1-.878.366c-.366,0-10.06,2.78-21.583,6.146l-20.961,6.146-1.1,1.463-1.134,1.427.256-1.244c.146-.878.11-1.171-.256-1.024-1.866.7-13.242,3.914-13.535,3.8-.219-.073-2.634-7.755-5.377-17.12-4.243-14.376-5.121-17.047-5.78-17.376-1.244-.622-1.353-.8-.658-1.573.585-.658.549-.951-.878-5.926-3.329-11.56-6.329-21.363-6.621-21.546a1.436,1.436,0,0,1-.256-.915c.11-1.061-.841-4.207-1.244-4.207-.183,0-.256-.146-.146-.329.219-.329-3.768-2.963-4.463-2.963a1.618,1.618,0,0,1-.878-.476c-.256-.219-1.427-1.244-2.6-2.195a14.122,14.122,0,0,1-2.634-2.817,2.865,2.865,0,0,0-1.28-1.28c-.841-.256-.988-1.28-.219-1.28.8,0,1.683.4,1.683.768,0,.951,1.9,2.707,4.39,4.06,1.5.841,3.219,1.829,3.768,2.231.585.366,1.134.622,1.244.476a22.222,22.222,0,0,0-.988-4.463c-1.1-3.841-1.28-4.207-1.975-4.024-.732.183-.732.146-.11-.293.622-.476.4-1.354-3.731-15.437-2.414-8.231-4.646-15.913-4.975-17.083-.585-2.012-.988-2.488-1.463-1.719-.439.732-1.207.329-1.61-.768-.4-1.207-.293-1.244,1.573-.512.549.256.622.183.439-.4-.658-2.158-8.633-29.594-8.633-29.777a9.65,9.65,0,0,1,2.853-1.061c7.682-2.231,7.755-2.231,7.755-3.146,0-.476-.219-.951-.439-1.024-.256-.11-.037-.219.549-.219.8-.037.988.11.988.878,0,1.1-.4,1.134,6.219-.914a43.382,43.382,0,0,1,4.938-1.317C295.585-960.839,297.963-953.157,300.707-943.829Zm-24.912-16.315a.563.563,0,0,1-.549.549.563.563,0,0,1-.549-.549.563.563,0,0,1,.549-.549A.563.563,0,0,1,275.795-960.144Zm321.475.22a.542.542,0,0,1-.476.366.542.542,0,0,1-.476-.366c-.073-.22.146-.4.476-.4S597.343-960.144,597.27-959.924Zm-278.748,3.475a2.35,2.35,0,0,1,1.536.329c.512.293.768.549.549.585a10.139,10.139,0,0,1-4.28-.622,3.1,3.1,0,0,0-1.939-.293c-1.024.256-1.244-.366-.293-.878.4-.256,1.1-.11,2.195.366A4.881,4.881,0,0,0,318.522-956.449Zm-93.94-.073c0,.585-.988,1.061-1.536.732-.256-.183-.146-.439.256-.768C224.179-957.181,224.581-957.181,224.581-956.523Zm83.039-.183c0,.4-2.158,1.317-2.451,1.024-.11-.146,0-.476.256-.8C305.9-957.071,307.62-957.254,307.62-956.705Zm126.936.768a.367.367,0,0,1-.366.366.393.393,0,0,1-.366-.366.367.367,0,0,1,.366-.366A.346.346,0,0,1,434.557-955.937Zm-130.229.219c0,.439-2.012,2.634-2.268,2.488-.293-.183.7-1.939,1.353-2.414C303.853-955.974,304.328-956.01,304.328-955.718Zm42.178,1.39c-.256.439-.4.439-.988,0-.658-.476-.658-.512.183-.841C346.652-955.5,346.982-955.169,346.506-954.328Zm251.129-.11a.542.542,0,0,1-.476.366.542.542,0,0,1-.476-.366c-.073-.219.146-.4.476-.4S597.709-954.657,597.636-954.437Zm-272.42,1.646.878.951-.915-.256c-2.341-.732-2.744-.951-2.195-1.28C323.826-953.925,324.265-953.815,325.216-952.791Zm-111.755.4c-.366.366-.7-.183-.366-.658.219-.4.293-.4.439,0A.763.763,0,0,1,213.461-952.389Zm-.7,2.122c-.146.366-1.719.768-1.719.4a10.433,10.433,0,0,1,.4-1.207c.366-.988.4-.988.915-.293A1.567,1.567,0,0,1,212.766-950.267Zm-23.668.11a2.263,2.263,0,0,1-.732.988c-.8.732-.951.512-.366-.585C188.4-950.45,189.1-950.706,189.1-950.157Zm308.781.549c-.475.476-.951.11-.585-.439a.469.469,0,0,1,.622-.183C498.135-950.084,498.135-949.865,497.879-949.609Zm209.025-.073c.219.7,0,1.39-.329,1.024-.366-.439-.585-1.792-.256-1.792C706.5-950.45,706.794-950.121,706.9-949.682Zm-547.071.183c0,.293-.146.439-.366.329a.785.785,0,0,1-.366-.585.361.361,0,0,1,.366-.329C159.686-950.084,159.833-949.828,159.833-949.5Zm439.705.329a.563.563,0,0,1-.549.549.563.563,0,0,1-.549-.549.563.563,0,0,1,.549-.549A.563.563,0,0,1,599.538-949.17Zm-388.857.622a4.171,4.171,0,0,1-1.9,2.122c-.512,0-.329-1.207.329-1.9C209.766-949.06,210.68-949.206,210.68-948.548Zm-52.128.293c.11.183-.037.366-.329.366-.329,0-.585-.183-.585-.366a.338.338,0,0,1,.329-.366A.7.7,0,0,1,158.552-948.255Zm176.87.988c-.037,1.244-.073,1.317-.512.732a1.724,1.724,0,0,1-.329-1.354C334.91-949.1,335.422-948.694,335.422-947.267Zm153.641-.622a.367.367,0,0,1-.366.366.393.393,0,0,1-.366-.366.367.367,0,0,1,.366-.366A.346.346,0,0,1,489.063-947.889Zm-272.749,1.866a.373.373,0,0,1-.549.11.373.373,0,0,1-.11-.549.373.373,0,0,1,.549-.11A.373.373,0,0,1,216.314-946.024Zm383.882,0a.542.542,0,0,1-.476.366.542.542,0,0,1-.476-.366c-.073-.219.146-.4.476-.4S600.269-946.243,600.2-946.024Zm101.952,1.061c.11.183-.037.366-.329.366-.329,0-.585-.183-.585-.366a.338.338,0,0,1,.329-.366A.7.7,0,0,1,702.148-944.963Zm-462.2,1.463a29.226,29.226,0,0,1,13.425,4.829c1.317.878,1.646.988,2.268.585.914-.549,1.39-.146.768.622-.366.476-.11.915,1.756,2.927a45.935,45.935,0,0,1,9.328,15.73c1.792,5.121,5.451,18.181,5.158,18.437-.366.329-20.559,6.255-21.254,6.255-.22,0-.7-.914-1.024-2.012-.366-1.353-.768-2.012-1.134-2.012-.4,0-.512-.183-.329-.658.4-.915.4-.951-1.061-6.073-1.792-6.182-2.817-8.889-4.353-11.3-3.036-4.719-7.755-6.219-13.718-4.317-6.621,2.158-9.255,6.877-7.975,14.23.622,3.548,7.682,27.8,8.267,28.387a2.013,2.013,0,0,1,.366,1.244c0,.512,3.548,13.023,7.9,27.838,8.633,29.375,9.475,31.789,12.438,34.386,3.146,2.744,7.572,3.292,12.328,1.5,3.8-1.427,6.4-3.987,7.243-7.1.915-3.4.329-6.95-3.292-19.351-1.9-6.475-3.292-11.779-3.109-11.962.4-.366,20.3-6.219,21.144-6.219.329,0,.585.073.585.146s1.317,4.609,2.963,10.133c4.024,13.681,4.719,16.754,4.975,22.461.439,9.95-2.268,17.778-8.267,23.924-1.39,1.427-1.829,2.122-1.683,2.634.256.732-.183.915-.768.329-.22-.219-1.427.366-3.329,1.61-7.792,5.085-19.864,8.121-28.277,7.17-9.328-1.061-15.8-4.9-21.693-12.877-1.646-2.232-2.231-2.744-2.817-2.6-.878.219-1.39-.8-.8-1.719.329-.512.073-1.427-1.207-4.426-1.573-3.731-3.036-8.523-18.291-60.688-4.17-14.193-7.645-25.826-7.792-25.9a4.682,4.682,0,0,1-.8-.439c-.476-.293-.476-.4.073-.8.549-.439.549-.7.037-3.219a46.967,46.967,0,0,1,.183-16.169c2.122-8.523,6.731-14.559,14.889-19.388a55.327,55.327,0,0,1,19.022-6.109A24.626,24.626,0,0,1,239.945-943.5Zm353.044.585c.476,1.354.22,1.463-1.317.512-.988-.622-1.207-.915-.841-1.134A1.342,1.342,0,0,1,592.99-942.914Zm100.342,1.244a1.989,1.989,0,0,1-2.744,0c-.768-.7-.8-.732-.146-.585a4.007,4.007,0,0,0,1.829-.11C693.368-942.658,693.954-942.256,693.332-941.671Zm11.523.329a8.87,8.87,0,0,1,1.134,1.61c0,.11-.549.037-1.171-.183-2.012-.658-3.4-2.853-1.792-2.853C703.428-942.768,704.233-942.109,704.855-941.341Zm-489.419,0c.512.951.476,1.134-.183,1.134a.881.881,0,0,0-.768.549c-.293.7-.878.732-.878.037,0-.878.7-2.414,1.061-2.414C214.887-942.036,215.216-941.707,215.436-941.341Zm374.225.4c.439.293.329.366-.439.366a1.733,1.733,0,0,1-1.207-.366C587.722-941.414,588.929-941.414,589.661-940.939ZM328.837-939.8c0,.183-.256.329-.549.329-.549,0-.732-.439-.329-.841C328.252-940.61,328.837-940.28,328.837-939.8Zm-62.92.841c0,.512-1.061,1.134-1.39.8a1.124,1.124,0,0,1,.037-.768C264.857-939.622,265.918-939.659,265.918-938.964Zm-3.658,2.634c0,.329-.183.512-.439.439-.658-.219-.768-1.024-.146-1.024A.578.578,0,0,1,262.26-936.33Zm451.045-.219a.367.367,0,0,1-.366.366.393.393,0,0,1-.366-.366.367.367,0,0,1,.366-.366A.346.346,0,0,1,713.305-936.549Zm-101.183,3.695c-1.317,1.463-1.683.622-.439-.988.7-.878.841-.951.951-.366A1.865,1.865,0,0,1,612.122-932.854Zm-174.529,1.317c1.024.512,2.049,2.122,1.61,2.524-.11.146-.658-.11-1.207-.549a4.163,4.163,0,0,0-2.049-.768c-1.1,0-1.61-.7-1.244-1.683C434.923-932.635,435.727-932.489,437.593-931.538Zm4.792,2.451c1.134.476,2.049,1.829,1.536,2.3-.11.11-.951-.329-1.829-1.024C439.751-929.562,439.9-930.147,442.385-929.087ZM334.8-928.1c-.622.622-1.353.037-.8-.622.293-.366.549-.439.841-.146C335.093-928.611,335.093-928.392,334.8-928.1Zm16.718,1.427c-.439.841-1.1.988-1.1.256a.9.9,0,0,1,.988-.988C351.81-927.4,351.81-927.221,351.518-926.672Zm266.6,3.219c.11.658-.037.8-.8.8-.988,0-1.134-.256-.732-1.28C616.914-924.77,617.975-924.441,618.121-923.453Zm78.613.293c-.329.329-1.024-.219-.768-.658.146-.219.366-.219.622.037C696.807-923.563,696.88-923.307,696.734-923.161Zm4.536,1.719c-.475.476-.951.11-.585-.439a.469.469,0,0,1,.622-.183C701.526-921.917,701.526-921.7,701.27-921.441Zm9.475.293c0,.878-.841.768-1.024-.146-.073-.366.11-.622.439-.622C710.525-921.917,710.744-921.588,710.744-921.149Zm-376.639-.037c.329-.256.732-.329.878-.183s.037.366-.183.439a.953.953,0,0,0-.476.841c0,.658-.988,1.463-1.792,1.463-.512,0-.512-1.317,0-2.268.329-.585.476-.658.7-.256C333.483-920.783,333.63-920.783,334.105-921.185Zm244.508,1.5a.542.542,0,0,1-.476.366.542.542,0,0,1-.476-.366c-.073-.219.146-.4.476-.4S578.687-919.9,578.613-919.685Zm141.276-.037c0,.4-1.207,1.1-1.9,1.1-.256,0-.073-.329.439-.732C719.451-920.161,719.89-920.271,719.89-919.722Zm-364.238.256c.293.256-2.231,1.9-2.926,1.939a9.042,9.042,0,0,0-2.378,1.463,9.764,9.764,0,0,1-2.341,1.463,5.609,5.609,0,0,0-1.792,1.1c-1.683,1.354-2.012,1.354-2.012.146,0-.732.329-1.061,1.683-1.646a4.31,4.31,0,0,0,1.829-1.244,4.1,4.1,0,0,1,1.866-.988,4.331,4.331,0,0,0,2.085-1.134,1.917,1.917,0,0,1,1.573-.622,2.183,2.183,0,0,0,1.39-.366A.589.589,0,0,1,355.651-919.466Zm-18.254,1.1c-.329,1.39-.768,1.829-1.28,1.317-.329-.329-.293-.658.183-1.353C337.1-919.649,337.69-919.612,337.4-918.368Zm187.222-.439a.585.585,0,0,1-.4.476c-.219.073-.4-.146-.4-.476s.183-.549.4-.476A.585.585,0,0,1,524.62-918.807Zm-204.708.8c-.366.366-.7-.183-.366-.658.219-.4.293-.4.439,0A.763.763,0,0,1,319.912-918Zm13.133.256c1.5.622,2.3,1.866,1.427,2.195-1.024.4-1.975.219-2.231-.366a.563.563,0,0,0-.7-.366c-.366.146-.512-.11-.512-.878C331.032-918.4,331.288-918.478,333.044-917.746Zm-168.09.4a.563.563,0,0,1-.549.549.563.563,0,0,1-.549-.549.563.563,0,0,1,.549-.549A.563.563,0,0,1,164.954-917.344Zm174.126.183c0,.4-.256.732-.549.732-.549,0-.768-.768-.293-1.207C338.678-918.112,339.08-917.893,339.08-917.161Zm119.84.8c.329.549-.988,1.5-1.427,1.061a.945.945,0,0,1,.622-1.5A1,1,0,0,1,458.92-916.356Zm-138.2,1.28c-.183.915-1.024,1.024-1.024.146,0-.439.219-.768.585-.768C320.607-915.7,320.79-915.442,320.716-915.076Zm18.071.549c-.475.476-1.171.073-1.171-.659,0-.439.146-.476.768-.11C338.9-915.039,339.044-914.783,338.787-914.527Zm395.661-.4a.542.542,0,0,1-.476.366.542.542,0,0,1-.476-.366c-.073-.219.146-.4.476-.4S734.522-915.149,734.449-914.93Zm-403.014.549a.871.871,0,0,1,.037,1.244c-.329.585-.219.8.841,1.646,1.353,1.024,1.646,1.646.732,1.646-.329,0-.439.219-.329.549.329.841.8.658,1.573-.549.658-1.1.658-1.1,1.317-.366a2.636,2.636,0,0,0,1.719.732c.988,0,1.061.073.841,1.024a1.749,1.749,0,0,0,.622,1.829c.8.732.841.951.622,3.987-.256,3.4-.622,3.987-2.6,4.39a1.492,1.492,0,0,0-1.134.914c-.146.549-.329.622-.878.329a12.238,12.238,0,0,0-1.28-.549c-.512-.146-.658-.585-.658-2.012,0-1.536-.11-1.866-.768-2.049l-.768-.256.768-.549c.841-.549.768-1.756-.219-3.256a1.479,1.479,0,0,1-.073-1.719c.329-.768.329-1.1-.037-1.536a1.13,1.13,0,0,1-.219-1.1c.11-.329,0-.549-.329-.549a2.4,2.4,0,0,1-1.244-.7c-.7-.7-.7-.8-.146-2.195C330.484-915.113,330.7-915.259,331.435-914.381Zm135.972,1.5c.183.658-.366.585-1.244-.073-.658-.549-.658-.549.183-.476A1.522,1.522,0,0,1,467.407-912.881Zm265.1.439c.219.4-1.207,1.317-1.536.988-.256-.256.585-1.317,1.024-1.317A.821.821,0,0,1,732.51-912.442Zm-507.014.878c0,.951-.732.915-.841-.073-.11-.585.037-.8.366-.7A.878.878,0,0,1,225.5-911.564Zm-53.921.732c-.037.439-.549.329-.7-.146-.11-.219.037-.366.293-.293C171.392-911.162,171.575-910.979,171.575-910.833Zm169.7.073a.563.563,0,0,1-.549.549c-.585,0-.732-.439-.293-.841C340.836-911.491,341.275-911.345,341.275-910.759Zm6.585.037c0,.622-.8.512-1.024-.146-.073-.256.11-.439.439-.439A.578.578,0,0,1,347.86-910.723Zm382.2.732c-.329.329-.768.476-.988.329-.585-.366-.11-.914.8-.914C730.608-910.577,730.608-910.54,730.059-909.991Zm-379.6.7c.512.476.549.732.183,1.463-.622,1.427-1.317,1.134-1.317-.549C349.323-909.991,349.506-910.138,350.457-909.3Zm362.117-.256c0,.476-.439.8-.8.585s-.037-.878.476-.878A.323.323,0,0,1,712.573-909.552Zm-38.447.4c.659.439.329.914-1.536,2.158-1.866,1.28-4.134,1.756-4.426.915-.7-1.756.11-2.488,3.256-3.036C673.5-909.516,673.578-909.516,674.127-909.15Zm41.739,1.5c0,1.024-.549.914-1.024-.183-.585-1.28-.549-1.353.293-.915A1.468,1.468,0,0,1,715.866-907.65ZM174.831-908.2c.256.329.366.658.256.768-.366.4-1.354-.183-1.354-.768C173.733-908.894,174.246-908.894,174.831-908.2Zm552.668.768c-1.61,1.61-2.414,1.536-1.354-.146.549-.841,1.024-1.171,1.719-1.171h.988Zm-241.435-.11c.073.366-.11.622-.439.622a.776.776,0,0,1-.768-1.134C485.185-908.565,485.917-908.272,486.063-907.54Zm-139.081.878c-.366.366-.7-.183-.366-.658.219-.4.293-.4.439,0A.763.763,0,0,1,346.982-906.662Zm-117.5,3.622c-.585,2.744-1.171,3.8-2.085,3.8-.512,0-.622-.146-.439-.658a23.007,23.007,0,0,0,1.28-6.109l.037-1.463.841,1.024C229.922-905.419,229.959-905.309,229.483-903.041Zm100.379-2.744c.4.658.4.878-.146,1.463-.951,1.024-1.244.841-1.244-.768C328.472-906.736,329.093-907.028,329.862-905.784Zm-155.25.878c.11.329,0,.549-.293.549-.878,0-1.683-.439-1.463-.768A1.156,1.156,0,0,1,174.611-904.906Zm490.3.439c-.549.585-.622.585-.622.037a.878.878,0,0,1,.476-.768C665.494-905.455,665.567-905.126,664.908-904.468Zm57.359-.256c.329.988.037,1.354-1.5,1.829-1.1.366-1.39.366-1.646-.037-.476-.768-.219-1.171,1.171-1.866C721.865-905.638,721.975-905.6,722.267-904.724Zm-403.014.439c-.256.7-1.39.8-1.39.146,0-.366.329-.585.768-.585S319.326-904.541,319.253-904.285Zm30.948.037c.4.293.622.7.549.951-.11.293-.475.11-1.024-.476C348.774-904.8,349.1-905.053,350.2-904.248Zm351.325,2.122c.073.841.073.841-.476.183-.658-.878-.732-1.427-.073-1.244A1.523,1.523,0,0,1,701.526-902.126Zm-384.577-.4c.256.439-.439,1.829-.915,1.829-.219,0-.366-.512-.366-1.1C315.668-902.895,316.436-903.334,316.949-902.529Zm296.161.476c-.037.439-.549.329-.7-.146-.11-.219.037-.366.293-.293C612.926-902.382,613.109-902.2,613.109-902.053Zm-438.022.7a2.74,2.74,0,0,1,.841,2.195c0,1.646-.512,1.573-1.244-.219C173.477-902.309,173.551-902.785,175.087-901.358Zm443.839.658c-.293.549-.549.7-.8.439s-.219-.622.073-1.171.549-.7.8-.439S619.218-901.248,618.926-900.7Zm104.256,0c0,.183-.4.622-.951.951-1.244.841-2.049.146-.841-.732C722.341-901.139,723.182-901.248,723.182-900.7Zm-224.059,2.6a.775.775,0,0,1-.622.622c-.658.11-.915-.658-.4-1.171A.633.633,0,0,1,499.123-898.1Zm157.848,1.354a9.288,9.288,0,0,1-.329,1.829,2.447,2.447,0,0,0,.329,2.378c.768,1.207.951,2.451.439,2.451-.293,0-1.171-1.756-1.683-3.439-.219-.585-.4-.512-1.683.658-1.536,1.39-2.561,1.683-2.561.768,0-.585,4.536-5.3,5.121-5.3C656.824-897.407,656.97-897.115,656.97-896.749Zm51.214-.366c0,.476-.439.8-.8.585s-.036-.878.476-.878A.323.323,0,0,1,708.184-897.115Zm27.07.073c0,.183-.256.366-.549.366s-.549-.183-.549-.366c0-.219.256-.366.549-.366S735.254-897.261,735.254-897.042Zm-244,1.463a2.89,2.89,0,0,1-.8,1.1c-1.024.951-1.719.366-.8-.7C490.343-895.981,491.258-896.2,491.258-895.578Zm125.473,1.866c0,.878-.841.768-1.024-.146-.073-.366.11-.622.439-.622C616.511-894.481,616.731-894.152,616.731-893.713Zm24.509.7a.367.367,0,0,1-.366.366.393.393,0,0,1-.366-.366.367.367,0,0,1,.366-.366A.346.346,0,0,1,641.24-893.018Zm-303.989.732c0,.183-.256.366-.585.366-.293,0-.439-.183-.329-.366a.7.7,0,0,1,.585-.366A.338.338,0,0,1,337.251-892.286Zm25.973.366a.646.646,0,0,1-.695.732c-.988,0-1.28-.622-.512-1.061C362.968-892.8,363.224-892.725,363.224-891.92Zm132.9.549c.293.695-.476,1.134-.878.512-.476-.732-.4-1.061.183-1.061A.826.826,0,0,1,496.123-891.371ZM355.4-889.542a3.2,3.2,0,0,0,1.719.549c.549,0,.988.183.988.4s-.768.329-1.9.256c-1.683-.11-1.939-.22-2.049-.951C354.005-890.237,354.371-890.311,355.4-889.542Zm-28.021,1.317c.293.512.256.7-.073.7-.878,0-1.5-.659-1.28-1.28C326.313-889.506,326.825-889.286,327.374-888.226Zm-95.477.512c1.024,1.061,1.463,1.244,2.231,1.1.841-.183.988-.073,1.134.732.146.732.073.914-.329.768-.4-.183-.439.146-.256,1.719a5.349,5.349,0,0,0,.585,2.122c.183.11-.183.219-.841.256l-1.171.037.22-2.158c.146-1.28.11-2.268-.11-2.378s-.366-.037-.366.146c0,.219-.329.4-.7.4a.925.925,0,0,0-.878.622c-.146.549-.219.549-.439-.183-.146-.439-.366-.8-.512-.8s-.549-.622-.915-1.354c-.622-1.28-.622-1.39,0-1.829C230.471-889.177,230.507-889.14,231.9-887.713Zm9.877.256c0,.293-1.573,1.024-2.231,1.024s-.329-1.427.475-2.012c.768-.512.878-.512,1.28.073A2.406,2.406,0,0,1,241.774-887.457Zm451.594-1.171a.784.784,0,0,1-.585.366.361.361,0,0,1-.329-.366c0-.219.256-.366.585-.366C693.332-888.994,693.478-888.847,693.368-888.628Zm-24.692.951a3.807,3.807,0,0,1-1.1,1.683,3.646,3.646,0,0,0-1.1,1.719c0,.695-1.792,2.6-2.487,2.6-.622,0-.549-.732.11-.951.366-.146.476-.476.329-.951-.183-.585.256-1.171,1.9-2.707a26.65,26.65,0,0,1,2.232-1.975C668.64-888.262,668.676-888.006,668.676-887.677Zm11.706-.366c0,.585-.841,1.61-1.28,1.61-.549,0-.768-1.134-.293-1.573C679.1-888.3,680.382-888.335,680.382-888.043Zm-40.6.293a5.724,5.724,0,0,0,.219.732c.146.4.037.585-.366.585-.329,0-.585-.073-.585-.146a5.711,5.711,0,0,0-.22-.732c-.146-.4-.036-.585.366-.585C639.521-887.9,639.777-887.823,639.777-887.75Zm-353.374.585c0,.439-1.024.915-1.317.622-.329-.329.22-.988.8-.988C286.184-887.53,286.4-887.348,286.4-887.165Zm-6.694,1.719c.183.549-2.634,1.354-3.512,1.024-.475-.183-.329-.4.7-.951C278.282-886.1,279.49-886.14,279.709-885.445Zm-42.324,1.061c0,.878-.146,1.244-.439,1.171-.878-.293-.8-2.487.073-2.487C237.2-885.7,237.385-885.116,237.385-884.385Zm36.508-.512c.329.329.293.585-.146,1.061-.549.585-.476.659.988.951,1.939.366,2.378,1.207.622,1.207a11.53,11.53,0,0,0-2.6.4c-1.829.512-2.487.256-3.914-1.573-1.171-1.463-1.207-1.5-.329-1.244.476.11,1.646.329,2.634.476,1.683.219,1.719.183,1.719-.768C272.868-885.409,273.2-885.592,273.893-884.9Zm-27,1.244c0,.329-.4.512-1.171.512l-1.207-.037.878-.7C246.274-884.641,246.9-884.567,246.9-883.653Zm19.754-.293c0,.585-.878,1.171-1.756,1.171-.512,0-.8-.183-.7-.476a.813.813,0,0,1,.732-.439,1.447,1.447,0,0,0,.841-.293C266.137-884.311,266.65-884.311,266.65-883.946Zm-16.937,1.061c.11.256-.183.622-.585.841-.658.329-.768.293-.768-.293C248.359-883.507,249.383-883.909,249.712-882.885Zm5.195,0c.329.622.366.622,1.024,0,1.024-.878,1.756-.073.8.878-.658.659-.768.659-1.939.11a2.644,2.644,0,0,0-2.378-.22c-.7.256-1.134.256-1.134.037a3.55,3.55,0,0,0-.037-.622c0-.293,1.317-.732,2.488-.768A1.421,1.421,0,0,1,254.907-882.885Zm5.524.146c0,.183-.549.329-1.171.329l-1.207-.037.915-.476C259.882-883.433,260.431-883.4,260.431-882.738Zm397.82.073c0,.951-.732.915-.841-.073-.11-.585.037-.8.366-.7A.878.878,0,0,1,658.25-882.665Zm4.719,1.573c.293.8-.037,1.244-.951,1.244-.512,0-.659-.183-.512-.585a4,4,0,0,0,.219-.914C661.726-881.9,662.713-881.714,662.969-881.092ZM248.8-880.031c-.183,1.536-.7,2.012-2.268,2.012-1.61,0-2.524-.841-1.939-1.756a3.639,3.639,0,0,1,3.219-1.463C248.8-881.129,248.908-881.019,248.8-880.031Zm101.988-.915c0,.183-.256.366-.549.366s-.549-.183-.549-.366c0-.219.256-.366.549-.366S350.786-881.165,350.786-880.946Zm-116.145,2.085c.11.476.073.841-.11.841-.622,0-1.244-1.061-1.024-1.719C233.8-880.434,234.275-880.068,234.641-878.861Zm19.571-.8a.531.531,0,0,1-.512.549c-.622,0-1.024-.512-.7-.878C253.444-880.434,254.212-880.214,254.212-879.666Zm329.23.183c0,.768-.549.988-.915.366a.749.749,0,0,1,.585-1.1C583.3-880.214,583.442-879.885,583.442-879.483Zm-331.571.037a.7.7,0,0,1-.915.914c-.4-.256-.146-1.317.329-1.317A.864.864,0,0,1,251.871-879.446Zm288.7,1.536c.11.585-1.61,1.719-2.67,1.719-.8,0-.7-.256.659-1.463C539.8-878.788,540.386-878.861,540.569-877.91Zm-303,.988c0,.8-1.061.658-1.207-.11-.11-.512.037-.658.549-.549A.772.772,0,0,1,237.568-876.922Zm-1.719.622c-.183.915-.915.988-1.39.146-.366-.7-.293-.768.549-.768C235.7-876.922,235.958-876.739,235.848-876.3Zm300.7.183c.073.366-.219.7-.658.841-1.024.329-1.244.073-.732-.915C535.631-877.032,536.362-877,536.545-876.117Zm-291.3.658c0,.293-.366.585-.8.658-.8.11-1.171-.585-.585-1.171C244.3-876.373,245.25-876.044,245.25-875.459Zm15.913-.293c0,.841-.585,1.427-1.207,1.171-.732-.256-.768-.585-.183-1.171S261.162-876.3,261.162-875.751Zm103.89,1.39c0,.841-.366.951-1.024.293s-.549-1.024.293-1.024A.657.657,0,0,1,365.053-874.361Zm177.784-.4c0,.732-2.817,2.6-5.451,3.695-2.853,1.134-4.573,1.39-4.975.732-.11-.219.146-.366.658-.366,1.244,0,7.646-2.853,8.231-3.695C541.776-875.13,542.837-875.349,542.837-874.764Zm-274.358.585c0,.293-.146.549-.366.549-.183,0-.366-.256-.366-.549s.183-.549.366-.549C268.332-874.727,268.479-874.471,268.479-874.178Zm341.631.988c-.256.476-.512.658-.585.4a1.876,1.876,0,0,1,.293-1.28c.256-.476.512-.658.585-.4A1.877,1.877,0,0,1,610.11-873.191Zm-371.335-.146c.11.329-.073.476-.512.366a1.133,1.133,0,0,1-.8-.585c-.11-.329.073-.476.512-.366A1.133,1.133,0,0,1,238.775-873.337Zm419.293-.293c0,.439-1.536,1.134-1.829.841-.219-.183,1.1-1.207,1.536-1.207A.361.361,0,0,1,658.068-873.63Zm-306.989,1.244c.11.439-.037.622-.366.512a1.133,1.133,0,0,1-.585-.8c-.11-.439.037-.622.366-.512A1.133,1.133,0,0,1,351.079-872.386Zm177.162.329c-.476.476-.951.11-.585-.439a.469.469,0,0,1,.622-.183C528.5-872.532,528.5-872.313,528.241-872.057Zm-287.93.22a.749.749,0,0,1-1.1.585.445.445,0,0,1-.183-.585C239.323-872.276,240.311-872.276,240.311-871.837Zm-66.066.622c.4.988.256,1.354-.329.878-.585-.512-.732-1.463-.219-1.463C173.88-871.8,174.136-871.545,174.246-871.215Zm18,.4c-.366.366-.7-.183-.366-.658.219-.4.293-.4.439,0A.763.763,0,0,1,192.244-870.813Zm46.239-.439c0,.293-.146.549-.366.549-.183,0-.366-.256-.366-.549s.183-.549.366-.549C238.336-871.8,238.482-871.545,238.482-871.252Zm94.05-.073c-.037.439-.549.329-.7-.146-.11-.22.037-.366.293-.293C332.349-871.654,332.532-871.471,332.532-871.325Zm-142.7.22a4.005,4.005,0,0,0,.219.914c.146.366.037.585-.256.585-.878,0-1.536-.622-1.317-1.244C188.732-871.471,189.829-871.691,189.829-871.106Zm76.162,3.146c-.4.841-2.158,1.9-2.524,1.5-.293-.293.329-2.012,1.061-2.78.7-.732.8-.732,1.317-.22C266.32-869.02,266.32-868.728,265.991-867.96Zm28.826-1.683c0,.585-1.756,2.451-2.012,2.158-.293-.256.476-1.792,1.061-2.195C294.415-870.081,294.817-870.045,294.817-869.642Zm235.875.293c.073.293-.219.476-.8.476-.914,0-1.207-.366-.7-.878A1.065,1.065,0,0,1,530.692-869.35Zm57.286,1.244a.373.373,0,0,1-.549.11.373.373,0,0,1-.11-.549.373.373,0,0,1,.549-.11A.373.373,0,0,1,587.978-868.106Zm-344.192,1.024c.256.439-.439.878-.915.585-.4-.256-.146-.914.366-.914A.806.806,0,0,1,243.786-867.082Zm47.738,1.134a.361.361,0,0,1-.329.366.785.785,0,0,1-.585-.366c-.11-.219.037-.366.329-.366C291.269-866.313,291.525-866.167,291.525-865.948Zm257.9,2.158c0,.366-1.317.768-1.573.512-.11-.073-.11-.476,0-.841.146-.585.329-.659.878-.329C549.092-864.265,549.422-863.936,549.422-863.789Zm-90.575,0a1.713,1.713,0,0,1,.512,1.28c-.073.4-.366.183-.951-.7C457.53-864.594,457.823-864.923,458.847-863.789Zm-107.585.951c.037.183-.22.4-.549.476-.4.073-.659-.11-.659-.476C350.054-863.46,351.152-863.5,351.262-862.838Zm113,3.548c-.329.329-.549.329-.878,0-.366-.366-.366-.549.073-.8C464.188-860.534,464.846-859.875,464.261-859.29Zm-117.718.878c.732.293.4.878-.549.878-.7,0-.915-.4-.439-.841C345.848-858.668,345.848-858.668,346.543-858.412ZM328.8-855.924c-.988.476-1.244.037-.732-1.134l.476-1.024.476.915C329.459-856.363,329.459-856.217,328.8-855.924Zm-34.715.4c.585.7.11,1.463-.585.878-.549-.476-.7-1.427-.183-1.427A1.507,1.507,0,0,1,294.085-855.522Zm-97.123.549a.731.731,0,0,1-.439.622c-.293.11-.476-.146-.476-.622s.183-.732.476-.659A.841.841,0,0,1,196.962-854.973Zm336.51-.146a.889.889,0,0,1,.037.8c-.219.219-1.28-.658-1.28-1.061C532.229-855.961,533.253-855.741,533.472-855.12Zm-337.863,4.28c.073.366-.11.622-.439.622-.366,0-.585-.329-.585-.768C194.585-851.864,195.426-851.754,195.609-850.84Zm250-.293a.585.585,0,0,1-.4.476c-.219.073-.4-.146-.4-.476s.183-.549.4-.476A.585.585,0,0,1,445.6-851.132Zm29.375.183c0,.4-.512.585-2.085.658-2.414.11-2.78-.329-.732-.915C473.955-851.718,474.979-851.644,474.979-850.949Zm18.4,2.817c.073.293-.183.476-.622.476-.768,0-1.28-.476-.878-.878A1.065,1.065,0,0,1,493.379-848.133Zm-38.337,1.683a1.729,1.729,0,0,0,.732,1.28c.4.256.732.622.732.8,0,.7-.988.366-2.012-.732-.841-.878-.951-1.171-.549-1.646C454.6-847.547,455.042-847.438,455.042-846.45Zm-202,.7a1.413,1.413,0,0,1-1.061.585c-.841.073-.841.073-.183-.476C252.676-846.3,253.224-846.377,253.041-845.755Zm125.51.878c.073.073-.256.146-.8.146a1.693,1.693,0,0,1-1.171-.366C376.356-845.462,378.112-845.243,378.551-844.877Zm-113.658.7a.585.585,0,0,1-.4.476c-.219.073-.4-.146-.4-.476s.183-.549.4-.476A.585.585,0,0,1,264.894-844.182Zm82.6,1.683c0,.183.512.549,1.134.768,1.061.366,1.061.4.476,1.061-.841.915-1.171.878-1.463-.183a1.517,1.517,0,0,0-.768-1.1.424.424,0,0,1-.293-.585C346.872-843.011,347.494-843.011,347.494-842.5Zm111.572.841c0,.549-.658,1.134-.951.841-.256-.256.256-1.354.622-1.354C458.92-842.17,459.066-841.95,459.066-841.658ZM259.3-840.012l.585.878-1.244-.219c-1.536-.329-1.573-.366-1.28-1.134C257.687-841.328,258.565-841.109,259.3-840.012Zm41.154.622c.256.7-.073,1.353-.549,1.061-.439-.293-.439-1.646,0-1.646C300.085-839.975,300.341-839.719,300.451-839.39Zm183.857,1.646a.655.655,0,0,1-.549.7c-.549,0-.768-1.134-.329-1.573C483.832-838.987,484.307-838.512,484.307-837.744Zm-2.744,1.061a.351.351,0,0,1-.622.073.674.674,0,0,1-.11-.8.351.351,0,0,1,.622-.073A.674.674,0,0,1,481.564-836.683Zm-295.319,1.9c-.549.549-.951.146-.658-.658.183-.476.329-.549.658-.219S186.573-835.11,186.244-834.781Zm9,3.475c.073.293-.183.476-.622.476s-.768-.219-.768-.585C193.853-832.073,194.987-831.964,195.243-831.305Zm247.362.439a.749.749,0,0,1-1.1.585.445.445,0,0,1-.183-.585C441.617-831.305,442.6-831.305,442.6-830.866Zm-16.462,2.085c0,.476-.768,1.61-1.1,1.61-.512,0-.439-.878.073-1.39C425.594-829.037,426.143-829.147,426.143-828.781Zm-18.291,1.39c-.732.7-2.378,1.171-2.012.585a3.886,3.886,0,0,1,2.195-1.061C408.219-827.9,408.145-827.684,407.853-827.391Zm71.553.915c-.366.585-.841.512-1.1-.183-.329-.915.146-1.39.768-.768A.919.919,0,0,1,479.405-826.477Zm-35.411.7c.146.841.11.841-1.024.256-1.207-.622-1.134-1.39.11-1.207A1.019,1.019,0,0,1,443.995-825.782Zm-3.585.439c0,.8-.439.915-1.5.366-1.024-.585-.841-1.1.4-1.1C440.154-826.074,440.41-825.928,440.41-825.343Zm28.021-.293c.146.219-.037.622-.4.878a.96.96,0,0,1-1.317.037c-.658-.4-.658-.476-.073-.915C467.407-826.184,468.1-826.184,468.431-825.635Zm10.755,1.024a.367.367,0,0,1-.366.366.393.393,0,0,1-.366-.366.367.367,0,0,1,.366-.366A.346.346,0,0,1,479.186-824.611Zm-46.678,1.317c.329.8-.037,1.244-1.024,1.244a1.976,1.976,0,0,0-1.317.549c-.549.658-1.354.732-1.573.073-.146-.329-.293-.329-.841.037a35.776,35.776,0,0,1-5.194,2.451c-.768.219-.841.183-.476-.476a7.9,7.9,0,0,1,3.036-1.683,42.384,42.384,0,0,0,4.463-1.866C431.7-824.026,432.216-824.1,432.508-823.294Zm-56.225.146c.476,0,.476.11.11.549-.329.4-.622.439-1.134.146-.841-.439-.951-1.244-.11-.915A4.425,4.425,0,0,0,376.283-823.148Zm-2.085,1.756c0,.4-1.866,1.28-2.122,1.024a1.123,1.123,0,0,1,.037-.768C372.369-821.684,374.2-821.94,374.2-821.392Zm-160.664,1.207a.542.542,0,0,1-.476.366.542.542,0,0,1-.476-.366c-.073-.22.146-.4.476-.4S213.607-820.4,213.534-820.185Zm236.57.329c0,.622-1.28.914-2.634.549-.878-.219-.915-.256-.256-.732C448.092-820.733,450.1-820.587,450.1-819.855Zm-29.448,1.1c.768.768.951,1.463.4,1.463a3.39,3.39,0,0,0-.878.22c-.366.11-.658-.183-.951-.988-.512-1.463-.512-1.427.146-1.427A2.46,2.46,0,0,1,420.656-818.758Zm-52.677,1.683c0,.622-3.036,2.122-5.121,2.524-1.134.219-1.207.183-.732-.293a35.674,35.674,0,0,1,5.78-2.78C367.943-817.661,367.979-817.4,367.979-817.075Zm63.8,1.646a.373.373,0,0,1-.549.11.373.373,0,0,1-.11-.549.373.373,0,0,1,.549-.11A.373.373,0,0,1,431.777-815.429ZM433.642-814a.351.351,0,0,1-.622.073.674.674,0,0,1-.11-.8.351.351,0,0,1,.622-.073A.674.674,0,0,1,433.642-814Zm-8.743-.219c.329.841-.988,2.707-2.927,4.17-2.488,1.866-3.439,2.451-3.658,2.231-.366-.366.622-2.89,1.134-2.89.8,0,2.341-1.719,2.085-2.378-.146-.366-.073-.512.293-.366a1.853,1.853,0,0,0,1.427-.512C424.314-814.844,424.643-814.917,424.9-814.222Zm-121.12,1.134c.658.512.658.622.11,1.134-.732.768-1.39.366-1.39-.8C302.5-813.783,302.755-813.819,303.779-813.088Zm94.306,1.1c.293.658.11.7-.951.146-.841-.439-1.353-1.024-1.353-1.536C395.781-813.856,397.866-812.612,398.086-811.99Zm-38.374-.146a.373.373,0,0,1-.549.11.373.373,0,0,1-.11-.549.373.373,0,0,1,.549-.11A.373.373,0,0,1,359.712-812.137Zm-137.033.4c-.256.7-1.39.8-1.39.146,0-.366.329-.585.768-.585S222.752-811.99,222.679-811.734Zm129.68.512c.732.11,1.353.366,1.353.512,0,.549-1.427.768-2.158.4a4.044,4.044,0,0,0-1.646-.4c-1.171,0-2.049-.366-2.049-.8C347.86-811.881,348.372-811.844,352.359-811.222Zm-46.934,4.829c0,.732-1.024,1.171-2.67,1.171-2.158,0-2.268-.878-.11-.988a3.652,3.652,0,0,0,1.573-.256C304.548-806.8,305.426-806.723,305.426-806.394Zm-5.926,1.829c.073.256-.11.439-.439.439a.578.578,0,0,1-.585-.585C298.475-805.333,299.28-805.223,299.5-804.565Zm102.171.915c-.037.439-.549.329-.7-.146-.11-.219.037-.366.293-.293C401.488-803.979,401.67-803.8,401.67-803.65Zm-180.089,2.524c-.073.549-.366.841-.841.841s-.768-.293-.841-.841c-.11-.658.037-.8.841-.8S221.691-801.784,221.582-801.126Zm4.426-.11c.329.219.366.4.073.549a1.552,1.552,0,0,0-.4,1.134c0,1.866-1.207,1.28-1.829-.878-.293-1.061-.256-1.134.658-1.134A3.375,3.375,0,0,1,226.008-801.236Zm-7.1,2.6a.785.785,0,0,1-.585.366.361.361,0,0,1-.329-.366c0-.22.256-.366.585-.366C218.875-799,219.021-798.858,218.911-798.638Zm3.731,2.561c.915.7.915.732.329,2.414a8.141,8.141,0,0,1-1.207,2.414c-.658.732-1.719.914-1.427.183.878-2.158,1.061-3.256.658-4.536a2.382,2.382,0,0,1,.037-2.085l.439-.768.11.8A3.024,3.024,0,0,0,222.642-796.078Zm111.133-1.1c.732.8.732.8-.439,1.427-1.061.549-1.1.512-1.61-.4-.366-.658-.293-.878.256-1.28C332.861-798.053,333.008-798.053,333.776-797.175Zm29.814,1.1c-2.488,2.268-3.621,3.073-3.914,2.817-.329-.329,1.573-2.451,3.292-3.585C365.419-798.529,365.784-798.053,363.59-796.078Zm-145.959.915c.366.439.366.7.037,1.024s-.512.329-.768-.11C216.094-795.492,216.753-796.224,217.631-795.163Zm111.5,3.512a.542.542,0,0,1-.476.366.542.542,0,0,1-.476-.366c-.073-.219.146-.4.476-.4S329.2-791.871,329.13-791.651Zm30.07.293a.7.7,0,0,1-.366.585c-.183.11-.366-.037-.366-.329,0-.329.183-.585.366-.585A.338.338,0,0,1,359.2-791.359Zm-142.008.841c-.22.658-2.012,1.463-2.78,1.317-.439-.11-.219-.366.841-.951C216.936-791.066,217.375-791.139,217.192-790.517Zm55.091.658a4.752,4.752,0,0,1-1.207.549c-1.134.329-.878-.549.366-1.171C272.32-790.956,272.941-790.481,272.283-789.859Zm-52.457.4c.512.914.11,3.622-.476,3.622-1.28-.037-1.463-.585-.8-2.524a8.4,8.4,0,0,1,.732-1.866C219.387-790.225,219.606-789.9,219.826-789.456Zm116.218.914c-.329.329-1.024-.219-.768-.658.146-.219.366-.219.622.037C336.117-788.944,336.19-788.688,336.044-788.542Zm-17.815.7c0,.293-.146.549-.329.549-.476,0-.8-.585-.512-.878C317.79-788.579,318.229-788.4,318.229-787.847ZM215.8-786.237a2.211,2.211,0,0,1-.7.914,1.575,1.575,0,0,0-.476,1.61c.183.878.146.951-.4.476-.732-.585-.841-2.963-.183-3.622C214.485-787.3,215.8-786.823,215.8-786.237Zm71.882.037a.351.351,0,0,1-.622.073.674.674,0,0,1-.11-.8.351.351,0,0,1,.622-.073A.674.674,0,0,1,287.684-786.2Zm-36.215,1.5c-.366,1.1-1.28.841-1.28-.329,0-1.427.8-2.195,1.171-1.134A2.554,2.554,0,0,1,251.468-784.7Zm83.954-1.134a.367.367,0,0,1-.366.366.393.393,0,0,1-.366-.366.367.367,0,0,1,.366-.366A.346.346,0,0,1,335.422-785.835Zm-117.06,1.9c0,.4-.658.366-1.536-.11-.768-.4-.768-.439-.073-.951.585-.439.732-.439,1.134.146A2.178,2.178,0,0,1,218.362-783.933Zm116.657,1.354c.512.951-.293,1.61-1.573,1.28-1.171-.293-1.244-.988-.11-1.536S334.617-783.347,335.02-782.579Zm2.451-.146a.819.819,0,0,0,.512.915c.622.329,1.061,1.829.585,1.829a2.45,2.45,0,0,1-1.866-1.5c-.732-1.39-.7-1.792.22-1.792C337.471-783.274,337.617-783.091,337.471-782.726Zm3.439.366a.939.939,0,0,1,.146.951c-.183.329-.4.256-.768-.219C339.446-782.835,339.958-783.494,340.909-782.36Zm-36.581.585c0,.183-.256.329-.549.329-.549,0-.732-.439-.329-.841C303.743-782.579,304.328-782.25,304.328-781.774Zm-91.819,1.061c0,1.39-1.792,3.512-2.67,3.183-1.1-.4-.732-1.939.768-3.146C212.29-782.067,212.509-782.067,212.509-780.714Zm4.39,0a.367.367,0,0,1-.366.366.393.393,0,0,1-.366-.366.367.367,0,0,1,.366-.366A.346.346,0,0,1,216.9-780.714Zm39.544.476c-.476.476-.951.11-.585-.439a.469.469,0,0,1,.622-.183C256.7-780.714,256.7-780.494,256.443-780.238Zm-2.561,2.927c-.658.658-.841.037-.329-1.061.476-1.024.476-1.024.585-.183A1.634,1.634,0,0,1,253.883-777.312Zm-16.718,1.39a.373.373,0,0,1-.549.11.373.373,0,0,1-.11-.549.373.373,0,0,1,.549-.11A.373.373,0,0,1,237.165-775.922Zm-28.68.219a3.19,3.19,0,0,1-.8,1.5l-.841.841,1.061-.4c.841-.293,1.134-.293,1.39.073.512.841.293,1.39-.512,1.28-.658-.073-.878.146-.951.914-.146,1.1-.329,1.207-1.134.7-.329-.219-.4-.658-.256-1.28.366-1.427-.768-.8-1.463.8-.512,1.244-.549,1.244-1.061.585-.476-.622-.439-.768.183-1.317a1.932,1.932,0,0,0,.732-1.134c0-.585,2.707-3.183,3.292-3.183C208.339-776.324,208.486-776.031,208.486-775.7Zm5.487,1.9c0,.183-.439.7-.988,1.134-.878.7-1.024.7-1.317.183-.219-.439-.146-.732.366-1.1C212.8-774.166,213.973-774.312,213.973-773.8Zm28.094,3.8c.073.366-.11.622-.439.622a.776.776,0,0,1-.768-1.134C241.189-771.02,241.921-770.727,242.067-770Zm-35.85.7c-.183.549-1.756.878-1.756.366s.439-.8,1.207-.8C206.035-769.739,206.291-769.556,206.218-769.3Zm1.171,2.341c0,.622-.8.512-1.024-.146-.073-.256.11-.439.439-.439A.578.578,0,0,1,207.388-766.959Zm1.829.073a3.584,3.584,0,0,1-.549,1.061c-1.1,1.573-2.378,4.463-2.378,5.377,0,.512-.146.951-.329.951-.439,0-.878-1.353-.622-1.792.146-.183.037-.8-.146-1.353-.512-1.28.293-2.561,2.049-3.292.7-.293,1.244-.7,1.244-.878a.367.367,0,0,1,.366-.366C209.071-767.179,209.217-767.069,209.217-766.886Zm49.97,2.085a3.015,3.015,0,0,1-1.463.549c-.768-.037-.768-.037-.073-.549a3.015,3.015,0,0,1,1.463-.549C259.882-765.313,259.882-765.313,259.187-764.8Zm5.268.219c.256.4.329.841.219.951-.293.329-1.317-.622-1.317-1.207C263.357-765.606,264.016-765.459,264.455-764.581ZM259-758.253c-.512,1.28-1.463,1.646-2.122.732-.439-.585-.366-.732.512-1.207a3.7,3.7,0,0,0,1.39-1.1c.293-.512.366-.512.476,0A4.771,4.771,0,0,1,259-758.253Zm-35.849,6.438c.476,0,2.3,3.987,1.975,4.317-.146.146-.512-.11-.878-.585-.329-.476-1.024-1.39-1.573-2.085-1.134-1.317-1.354-2.195-.439-1.866A4.007,4.007,0,0,0,223.155-751.815Z" transform="translate(-148.2 1107.604)" fill="#ef0e0e"/>
    <path id="Path_72" data-name="Path 72" d="M1428-1026.349c0,.329.183.549.4.475a.585.585,0,0,0,.4-.475.585.585,0,0,0-.4-.476C1428.183-1026.9,1428-1026.678,1428-1026.349Z" transform="translate(-959.835 1056.384)" fill="#ef0e0e"/>
    <path id="Path_73" data-name="Path 73" d="M1414.049-1004.075c-1.134,2.853-1.171,3.109-.219,3.109.549,0,.732-.256.732-.951s.293-1.024,1.28-1.463c1.427-.585,1.609-1.207.658-2.049C1415.146-1006.563,1415-1006.49,1414.049-1004.075Z" transform="translate(-950.42 1043.255)" fill="#ef0e0e"/>
    <path id="Path_74" data-name="Path 74" d="M1405.172-998.561c.219.658,1.024.768,1.024.146a.578.578,0,0,0-.585-.585C1405.282-999,1405.1-998.817,1405.172-998.561Z" transform="translate(-945.348 1038.729)" fill="#ef0e0e"/>
    <path id="Path_75" data-name="Path 75" d="M1398.255-997.388c-.366.329-.329,1.939.037,1.939a2.492,2.492,0,0,0,.951-.476c.585-.439.585-.512-.073-1.1C1398.8-997.352,1398.365-997.535,1398.255-997.388Z" transform="translate(-940.808 1037.739)" fill="#ef0e0e"/>
    <path id="Path_76" data-name="Path 76" d="M1396-989.451c0,.293.183.549.366.549.219,0,.366-.256.366-.549s-.146-.549-.366-.549C1396.183-990,1396-989.744,1396-989.451Z" transform="translate(-939.541 1033.021)" fill="#ef0e0e"/>
    <path id="Path_77" data-name="Path 77" d="M1353.7-946.179c-.475.732-.439.768.732.512,1.609-.366,1.939-.585,1.354-.951A1.37,1.37,0,0,0,1353.7-946.179Z" transform="translate(-912.536 1005.698)" fill="#ef0e0e"/>
    <path id="Path_78" data-name="Path 78" d="M1432.413-910.38c-.841.183-3.4.878-5.67,1.61-2.3.7-5.194,1.536-6.438,1.9-1.28.329-2.3.8-2.3,1.024,0,1.244,5.707,19.607,6.072,19.607a6.245,6.245,0,0,1,1.427.366c.841.329.915.476.549.915a1.758,1.758,0,0,1-1.134.549c-.4,0-.7.073-.7.183,0,.073,2.049,7.024,4.536,15.437s7.938,26.96,12.108,41.263c4.207,14.267,7.682,26.046,7.755,26.155.219.256,13.279-3.622,15.583-4.646a9.708,9.708,0,0,0,5.926-7.9c.256-1.719.256-1.756-.622-1.536-.658.183-.988.073-1.134-.329-.183-.439,0-.585.841-.585,1.28,0,1.317-.256.512-3.658-1.061-4.609-16.352-56.152-16.644-56.262a.294.294,0,0,1-.146-.439c.293-.476-6.987-25.022-8.084-27.107a14.942,14.942,0,0,0-5.341-5.853A12.693,12.693,0,0,0,1432.413-910.38ZM1424-905.551c-.439.7-.878.183-.878-.915l.036-1.171.476.914A1.977,1.977,0,0,1,1424-905.551Zm14.3-1.536a1.583,1.583,0,0,0,1.134.366c.988,0,1.171.549.293.878s-2.048.256-1.792-.11a.445.445,0,0,0-.183-.585.785.785,0,0,1-.366-.585C1437.388-907.563,1438.01-907.563,1438.3-907.087Zm-16.644,1.829c0,.183-.329.512-.732.732-.549.293-.732.293-.732-.11a1.032,1.032,0,0,1,.256-.732C1420.817-905.734,1421.658-905.661,1421.658-905.258Zm11.6,2.817c.183.549-1.975,1.28-2.3.8-.256-.439-.256-.439.768-.988C1432.523-903.1,1433.071-903.027,1433.254-902.442Zm.476,5.414c0,.293-.146.549-.366.549-.183,0-.366-.256-.366-.549s.183-.549.366-.549C1433.583-897.576,1433.73-897.32,1433.73-897.028Zm8.158,1.646c-.219.8-.768,1.28-1.061.988-.256-.256.549-1.719.914-1.719C1441.924-896.113,1442-895.784,1441.887-895.381Zm-2.67,1.829c0,.183-.256.366-.549.366s-.549-.183-.549-.366c0-.219.256-.366.549-.366S1439.217-893.772,1439.217-893.552Zm-10.755,1.28c.585.476.622.585.146.915-.7.439-1.792.146-2.744-.768-.695-.7-.695-.7.585-.7A4.081,4.081,0,0,1,1428.462-892.272Zm18.949-.22a11.771,11.771,0,0,1,.439,2.3c.183,1.683.146,2.049-.4,2.231-1.061.439-1.829-.329-1.866-1.829a11.154,11.154,0,0,0-.329-2.231c-.256-.732-.146-.8.841-.8A1.973,1.973,0,0,1,1447.411-892.492Zm-6,8.231a5.7,5.7,0,0,0,.219.732c.146.4,0,.585-.439.585-.988,0-1.756-.585-1.463-1.061C1439.985-884.37,1441.412-884.59,1441.412-884.261Zm4.39.732a1.043,1.043,0,0,1-.293.732c-.476.293-1.28-.4-1.024-.841C1444.85-884.224,1445.8-884.151,1445.8-883.529Zm-3.585,1.866a.585.585,0,0,1-.4.476c-.219.073-.4-.146-.4-.476s.183-.549.4-.476A.585.585,0,0,1,1442.217-881.663Zm3.951,1.646c0,.476-.512.988-1.463,1.463-.8.4-1.463.878-1.463,1.061,0,.732-8.084,7.353-8.962,7.353-.585,0,6.255-7.133,6.95-7.243a6.284,6.284,0,0,0,2.231-1.756C1445.107-880.859,1446.167-881.224,1446.167-880.017Zm5.487.183c0,.293-.146.549-.366.549-.183,0-.366-.256-.366-.549s.183-.549.366-.549C1451.508-880.383,1451.655-880.127,1451.655-879.834Zm-21.217,8.962a.367.367,0,0,1-.366.366.393.393,0,0,1-.366-.366.367.367,0,0,1,.366-.366A.346.346,0,0,1,1430.438-870.872Zm24.875,40.056a5.278,5.278,0,0,1-1.9.988,2.618,2.618,0,0,0-1.792,1.28c-.293.8-1.427,1.207-1.427.512,0-.841,3.731-3.292,5.085-3.329C1455.679-831.364,1455.679-831.255,1455.313-830.816ZM1452.02-816.4c0,.549-1.024,1.207-1.463.951-.292-.183-.292-.4.037-.768C1451.069-816.769,1452.02-816.915,1452.02-816.4Zm9.036,5.524a1.6,1.6,0,0,1-.219,1.061c-.293.439-.439.439-.915.073-.915-.768-.768-1.939.219-1.792C1460.617-811.464,1461.019-811.172,1461.056-810.879Z" transform="translate(-953.493 982.665)" fill="#ef0e0e"/>
    <path id="Path_79" data-name="Path 79" d="M1225.035-771.438c1.427,5.268,1.463,5.3,2.634,5.3h1.134l-.878.7-.915.7,1.427,4.9c.768,2.67,1.427,4.938,1.5,5.012a12.425,12.425,0,0,0,2.707-.658c2.451-.768,2.6-.878,2.414-1.719-.293-1.061.293-1.171.988-.146.475.7.585.658,5.341-.7l4.865-1.39-2.122-1.354a15.118,15.118,0,0,0-2.378-1.317c-.11,0-.4-.439-.622-.951-.329-.658-.622-.878-1.134-.7a.9.9,0,0,1-.951-.183,8.247,8.247,0,0,0-2.122-1.317,20.6,20.6,0,0,1-3.292-2.195,4.5,4.5,0,0,0-2.085-1.244c-.841,0-4.938-1.975-6-2.89C1224.889-772.133,1224.853-772.133,1225.035-771.438Z" transform="translate(-831.057 894.755)" fill="#ef0e0e"/>
    <path id="Path_80" data-name="Path 80" d="M775.1-720.338c-5.341,1.463-9.182,5.085-9.292,8.853-.183,4.646.036,6.365,1.683,12,1.573,5.451,4.134,14.12,17.925,61.091,2.963,10.06,5.816,19.1,6.292,20.12,1.317,2.6,3.365,5.048,4.024,4.792.329-.146.622.037.732.476.219.878,2.926,1.866,5.085,1.866,3.548,0,7.975-1.573,10.133-3.585a1.894,1.894,0,0,0,.768-2.122c-.183-1.1-.146-1.207.8-1.317,1.354-.146,1.756-1.683,1.5-5.963-.183-2.744-.841-5.377-4.024-16.279-2.122-7.133-7.645-26.009-12.328-41.885-4.646-15.913-9-29.96-9.584-31.277C785.963-719.5,781.061-721.947,775.1-720.338Zm.622,9.328a.367.367,0,0,1-.366.366.393.393,0,0,1-.366-.366.367.367,0,0,1,.366-.366A.346.346,0,0,1,775.72-711.01Zm-5.743,7.865c.037.183-.219.4-.549.476-.4.073-.658-.11-.658-.476C768.77-703.766,769.867-703.8,769.977-703.145Zm10.535,18.656c-.037.549-.878.439-1.061-.11-.11-.329.073-.476.439-.366C780.256-684.927,780.512-684.708,780.512-684.488Zm11.6,19.315c.073.366-.11.622-.439.622a.776.776,0,0,1-.768-1.134C791.231-666.2,791.962-665.9,792.109-665.173Zm3.256,21.363c-.549.549-1.354.4-1.354-.256,0-.366,1.134-.7,1.573-.439C795.767-644.432,795.657-644.1,795.364-643.81Zm-9.218.073c.366.658-.622.841-1.207.256-.549-.549-.549-.585.183-.585A1.48,1.48,0,0,1,786.146-643.737Zm15.181.219c0,.293-.329.549-.732.549s-.732-.256-.732-.549.329-.549.732-.549S801.327-643.81,801.327-643.517Zm-2.195,6.694c0,.4-.439.878-.951,1.134-.8.366-1.1.329-1.646-.183-.841-.732-.915-1.39-.146-1.1a2.276,2.276,0,0,0,1.354-.146C798.949-637.591,799.132-637.555,799.132-636.823Zm.366,17.778c-.512.658-1.463.768-1.463.183a3.264,3.264,0,0,1,.4-1.134c.366-.658.439-.7.988-.183C799.9-619.7,799.9-619.484,799.5-619.045Zm7.28,3.658c.768.4,1.1.4,2.158-.037a3.978,3.978,0,0,1,1.829-.366c.988.183-1.793,1.756-2.817,1.573a4.858,4.858,0,0,0-2.195.439,11.422,11.422,0,0,1-2.414.658c-5.085.549-5.67.585-5.67.219,0-.7.878-.988,3.8-1.207,2.378-.183,3-.366,3.475-.988C805.644-616.008,805.644-616.008,806.778-615.386Z" transform="translate(-539.845 862.31)" fill="#ef0e0e"/>
    <path id="Path_81" data-name="Path 81" d="M658.291-550.993c.366,1.1.4,1.171,1.1.878.7-.256.439-.768-.622-1.354C658.108-551.835,658.071-551.762,658.291-550.993Z" transform="translate(-471.617 755.044)" fill="#ef0e0e"/>
    <path id="Path_82" data-name="Path 82" d="M664.47-543.982c-.439.8-.439.8.219.219.366-.366.549-.732.439-.878C664.982-544.75,664.689-544.457,664.47-543.982Z" transform="translate(-475.418 750.593)" fill="#ef0e0e"/>
    <path id="Path_83" data-name="Path 83" d="M374-503.634a.393.393,0,0,0,.366.366.367.367,0,0,0,.366-.366.346.346,0,0,0-.366-.366A.367.367,0,0,0,374-503.634Z" transform="translate(-291.4 724.805)" fill="#ef0e0e"/>
    <path id="Path_84" data-name="Path 84" d="M1535.374-1091.278c-.7.256-1.1.512-.878.512.219.037.585.476.841.988.622,1.39,1.573,1.024,1.683-.7C1537.093-1091.973,1537.13-1091.973,1535.374-1091.278Z" transform="translate(-1027.335 1097.535)" fill="#ef0e0e"/>
    <path id="Path_85" data-name="Path 85" d="M1517.658-1085.345c-.366.073-.658.292-.658.475,0,.476.988.4,1.28-.073C1518.61-1085.418,1518.427-1085.528,1517.658-1085.345Z" transform="translate(-1016.278 1093.541)" fill="#ef0e0e"/>
    <path id="Path_86" data-name="Path 86" d="M1507.589-1081.2c.585.878,1.756,1.354,1.756.695,0-.549-1.1-1.5-1.719-1.5C1507.114-1082,1507.114-1081.927,1507.589-1081.2Z" transform="translate(-1010.086 1091.366)" fill="#ef0e0e"/>
    <path id="Path_87" data-name="Path 87" d="M1491-1077.634a.393.393,0,0,0,.366.366.367.367,0,0,0,.366-.366.346.346,0,0,0-.366-.366A.367.367,0,0,0,1491-1077.634Z" transform="translate(-999.789 1088.829)" fill="#ef0e0e"/>
    <path id="Path_88" data-name="Path 88" d="M1503.2-1077.5c-.439.439-.219,1.207.329,1.207a.531.531,0,0,0,.549-.512C1504.073-1077.431,1503.561-1077.833,1503.2-1077.5Z" transform="translate(-1007.374 1088.59)" fill="#ef0e0e"/>
    <path id="Path_89" data-name="Path 89" d="M1465.841-1070.638c-.475.073-.841.329-.841.512,0,.366,1.171.146,2.195-.439.476-.256.476-.293,0-.256A11.694,11.694,0,0,0,1465.841-1070.638Z" transform="translate(-983.3 1084.284)" fill="#ef0e0e"/>
    <path id="Path_90" data-name="Path 90" d="M1468.959-1069.443a3.866,3.866,0,0,1-1.317,1.646c-1.427,1.28-1.353,1.866.256,1.866.8,0,1.061-.183,1.061-.732,0-.768.549-.988.915-.366.476.768.915.329.915-.915,0-.878-.219-1.354-.7-1.646C1469.142-1070.065,1468.959-1070.065,1468.959-1069.443Z" transform="translate(-984.332 1083.711)" fill="#ef0e0e"/>
    <path id="Path_91" data-name="Path 91" d="M1460.172-1061.561c.22.658,1.024.768,1.024.146a.578.578,0,0,0-.585-.585C1460.282-1062,1460.1-1061.817,1460.172-1061.561Z" transform="translate(-980.228 1078.682)" fill="#ef0e0e"/>
  </g>
</svg>
